<svg width="197" height="107" viewBox="0 0 197 107" fill="none" xmlns="http://www.w3.org/2000/svg">
<path d="M53.5723 36.4271C53.6316 36.532 53.6909 36.6095 53.7456 36.6642C53.8962 36.4818 54.0285 36.3176 54.1426 36.1808C54.2567 36.044 54.3844 35.8889 54.5396 35.6973C54.5031 35.6654 54.4711 35.6289 54.4529 35.5879C54.1654 35.8251 53.8688 36.1078 53.5723 36.4271Z" fill="white"/>
<path d="M80.8389 17.0664C81.1263 17.0071 81.4046 16.9342 81.6784 16.8384C82.2031 16.7654 82.7005 16.5739 83.1522 16.2637C83.1704 16.2409 83.1887 16.2181 83.2069 16.1953C82.5544 16.4279 81.9294 16.6605 81.3362 16.8886C81.1719 16.9478 81.0031 17.0071 80.8389 17.0664Z" fill="white"/>
<path d="M53.5173 36.3266C53.6679 36.1441 53.8184 35.9982 53.9736 35.8933C54.1241 35.7975 54.2701 35.6516 54.4298 35.46C54.4298 35.5011 54.439 35.5421 54.4572 35.5786C54.8587 35.2457 55.2511 34.9857 55.639 34.8033C55.534 34.8398 55.4336 34.8762 55.3424 34.9036C55.1142 34.9811 54.845 35.0359 54.5485 35.0769C55.7576 33.9322 56.8161 32.7828 57.7287 31.6381C58.6412 30.4933 59.6222 29.3531 60.6853 28.222C61.1416 27.7523 61.575 27.2597 61.9948 26.7535C62.41 26.2472 62.848 25.7638 63.3043 25.2849C63.829 24.806 64.3583 24.3682 64.8967 23.9577C65.4214 23.5609 65.9918 23.155 66.594 22.7445C66.7446 22.6396 66.9043 22.5803 67.0777 22.553C67.2465 22.5302 67.429 22.5439 67.6161 22.5986C67.7666 22.74 67.8807 22.9087 67.9537 23.1003C68.0313 23.2918 68.0267 23.4788 67.9537 23.6476C67.7256 24.7422 67.3834 25.7273 66.9271 26.6075C66.3203 27.5927 65.7317 28.5504 65.1659 29.4854C64.5956 30.4203 64.007 31.3827 63.4001 32.3632C63.245 32.5502 63.1309 32.7464 63.0579 32.9607C62.9804 33.1751 62.9804 33.3165 63.0579 33.3849C63.4366 33.8227 63.8062 34.1374 64.1895 34.329C64.518 34.5707 64.9378 34.6619 65.4488 34.5889C65.5172 34.5798 65.5902 34.5661 65.6632 34.5524C66.2655 34.4293 66.7172 34.142 67.0229 33.6904C67.6298 32.9561 68.1955 32.2857 68.7294 31.6791C69.2632 31.0725 69.829 30.4021 70.4358 29.6633C70.7415 29.2117 71.0244 28.8241 71.2891 28.5048C71.5537 28.181 71.8001 27.8435 72.0282 27.4832C72.2564 27.1229 72.4252 26.7535 72.5393 26.3704C72.6533 25.9873 72.8221 25.6589 73.0503 25.3807C73.5065 24.9109 73.7666 24.4229 73.8487 23.9212C73.9218 23.4195 73.8853 22.8996 73.7392 22.3523C73.7392 22.2702 73.7712 22.1835 73.8533 22.0878L74.191 22.0422C74.4921 22.1699 74.7202 22.22 74.8708 22.1972V21.2167C74.7202 20.9111 74.6062 20.642 74.5332 20.4094C74.4602 20.1768 74.3461 19.9077 74.1955 19.6021C74.118 19.5292 74.0815 19.3331 74.0815 19.0047L73.6297 19.5565L73.4016 19.7116V19.3422C73.4153 19.2874 73.429 19.2327 73.4427 19.178C73.4655 19.1871 73.4929 19.1962 73.5157 19.2053C73.4929 19.1597 73.4746 19.1187 73.4609 19.0731C73.4792 18.9499 73.4929 18.8268 73.4883 18.7037C73.5385 18.6079 73.6206 18.5212 73.7392 18.4391C73.7894 18.4026 73.8533 18.3844 73.9263 18.3707C74.0769 18.3479 74.2776 18.3753 74.5286 18.4483C74.9073 18.5577 75.2449 18.5942 75.5506 18.5486C75.8518 18.5075 76.2305 18.4118 76.6868 18.2658C77.216 18.1108 77.3301 17.9329 77.029 17.7277C76.7278 17.527 76.6138 17.3354 76.6913 17.1621C76.6913 16.9158 76.7689 16.7836 76.9195 16.7608C77.2206 16.5555 77.508 16.4324 77.7727 16.3959C78.0373 16.3594 78.2837 16.3229 78.5118 16.291C78.9636 16.2271 79.4198 16.1633 79.8715 16.0994C80.3232 16.0356 80.7795 16.0128 81.2312 16.031C81.5278 15.99 81.8928 16.0219 82.308 16.1223C82.5818 16.1907 82.851 16.2089 83.1111 16.1724C83.1521 16.1679 83.1978 16.1587 83.2388 16.1496C83.3711 15.99 83.5354 15.8121 83.727 15.616C83.9506 15.3788 84.2152 15.242 84.5164 15.201C84.8175 15.3195 85.0092 15.4564 85.0822 15.6114C85.1689 15.6935 85.2555 15.7255 85.3422 15.7163C85.4061 15.7072 85.47 15.6707 85.5384 15.6114C85.689 15.4655 85.8396 15.3834 85.9947 15.3652C86.1453 15.3424 86.3369 15.3378 86.5605 15.3469C86.7886 15.356 86.9757 15.3515 87.1263 15.3287C87.4274 15.2876 87.5415 15.3925 87.4639 15.6479C87.3133 15.9125 87.2175 16.1907 87.1764 16.4826C87.1399 16.7744 87.0441 17.0937 86.889 17.4403C85.8259 19.7937 84.7993 22.1562 83.8183 24.5369C82.8282 26.9222 81.8791 29.3577 80.9666 31.8479C80.6609 32.4636 80.3597 33.3621 80.054 34.5479C79.7483 35.7337 79.2556 36.4953 78.5757 36.8374C78.4982 36.8465 78.4617 36.9332 78.4617 37.0974C78.5347 37.33 78.5164 37.558 78.4023 37.7769C78.2883 37.9958 78.2335 38.2284 78.229 38.4747C78.0784 38.8213 77.9643 39.1452 77.8868 39.4416C77.8092 39.7381 77.6221 40.071 77.3164 40.4359L77.0883 40.9558C77.0107 41.2978 76.956 41.6308 76.9149 41.9592C76.8784 42.2921 76.8191 42.584 76.7415 42.8394C76.6639 43.1769 76.5681 43.4734 76.4541 43.7379C76.34 43.9978 76.2077 44.2624 76.0571 44.5269C75.829 45.1289 75.6191 45.7081 75.432 46.2691C75.2404 46.8255 74.9575 47.3363 74.5788 47.797L74.3552 48.3169C74.2001 48.6635 74.086 49.0056 74.013 49.3431C73.9354 49.6806 73.8214 50.0227 73.6708 50.3693C73.5157 50.8755 73.4427 51.1765 73.4427 51.2541V51.6235L73.6708 51.3453C73.7392 51.2267 73.8031 51.1081 73.867 50.985L73.251 52.8458C73.2373 52.8777 73.2237 52.9051 73.2145 52.9416C73.137 53.1559 73.0594 53.352 72.9864 53.5253C72.8815 53.6485 72.8176 53.7123 72.7811 53.7169C72.7628 53.7215 72.7583 53.7078 72.7583 53.6804C72.5301 53.7123 72.4161 53.8492 72.4161 54.0954C72.2655 54.2779 72.1104 54.6701 71.9598 55.263C71.9598 55.3451 71.9233 55.4318 71.8457 55.523L71.9598 55.5093L72.0739 55.4956L72.302 55.4637C72.4024 55.2721 72.4845 55.0851 72.5758 54.8936L71.9735 56.7088C71.9689 56.5355 71.9279 56.3485 71.8503 56.1387C71.7727 56.1478 71.7362 56.1159 71.7362 56.0338V56.2801V56.5263C71.5856 56.9551 71.394 57.3108 71.1659 57.5845C71.1659 57.7486 71.2024 57.8627 71.2799 57.9356C71.5081 57.9037 71.6221 57.849 71.6221 57.7669C71.6267 57.7532 71.6358 57.735 71.645 57.7167L71.1613 59.1807C70.7142 59.4042 70.413 59.6094 70.2625 59.7919C70.1119 60.2206 69.9385 60.6539 69.7514 61.0826C69.5598 61.5159 69.391 61.9491 69.2404 62.3779C69.1628 62.387 69.1446 62.4098 69.1857 62.4463C69.2222 62.4827 69.2039 62.5056 69.1309 62.5147C69.0533 62.7701 68.9803 63.0072 68.9028 63.2216C68.8252 63.436 68.7522 63.6321 68.6746 63.8054L68.4465 64.3253C68.6746 64.2934 68.8252 64.2295 68.9028 64.1383C69.1309 63.8601 69.318 63.5089 69.4731 63.0802C69.172 63.0392 69.0944 62.989 69.245 62.9297C69.3955 62.8659 69.5096 62.7883 69.5872 62.6971C69.7377 62.3505 69.8701 62.0449 69.9841 61.7849C70.0982 61.525 70.2305 61.2605 70.3811 60.9959C70.4313 60.7816 70.5499 60.6311 70.7233 60.5307L70.0343 62.6105C69.9796 62.688 69.9203 62.761 69.8701 62.8431C69.7241 63.0848 69.6602 63.3721 69.6693 63.7142L69.0305 65.6388C69.026 65.6251 69.0214 65.6115 69.0168 65.5978L68.7887 65.876C68.7111 66.0493 68.6564 66.1998 68.6199 66.3275C68.5834 66.4552 68.5241 66.6057 68.4511 66.779C68.2229 67.2169 68.0313 67.6547 67.8807 68.0834C67.5796 68.5349 67.3104 69.0959 67.0822 69.7846C66.9317 70.0491 66.8176 70.3045 66.74 70.569C66.6625 70.8199 66.5484 71.0799 66.3978 71.3444C66.3203 71.5177 66.3203 71.7001 66.3978 71.8962C66.4708 72.0878 66.3203 72.2109 65.9461 72.2657C65.864 72.2748 65.8275 72.3249 65.8275 72.4025C65.7499 72.4937 65.7134 72.5804 65.7134 72.6625C65.8321 73.0912 65.7408 73.3238 65.4488 73.3648C65.3667 73.3785 65.2663 73.3739 65.1477 73.3511C65.1477 73.9212 65.102 74.2952 65.0336 74.4685C65.0336 74.5506 64.9743 74.619 64.8648 74.6783C64.7507 74.7331 64.6138 74.8562 64.4678 75.0386C64.4678 74.7923 64.4267 74.5962 64.3537 74.4412L64.1256 74.3499C64.048 74.4412 63.9568 74.4959 63.8427 74.5141C63.7287 74.5278 63.7104 74.5734 63.7834 74.6464C63.7834 74.8106 63.8199 74.9885 63.8975 75.18C63.9659 75.3761 64.048 75.5449 64.1256 75.6999L64.4632 76.0192C64.3081 76.2062 64.194 76.302 64.121 76.3111C64.0298 76.3065 63.9522 76.3111 63.8883 76.3202C63.6328 76.3567 63.5963 76.4935 63.7788 76.7261C64.0754 77.091 64.2123 77.4422 64.1758 77.7705C64.1347 78.0989 64.0435 78.4775 63.8883 78.9107L63.2039 81.9391V82.5503L63.7697 82.4727C64.0663 82.2675 64.3401 82.044 64.5636 81.8114C64.7918 81.5742 64.9743 81.3234 65.134 81.0589C65.3621 80.6986 65.5674 80.3474 65.7591 79.9916C65.9461 79.6405 66.1149 79.3349 66.2655 79.0704C66.4161 78.8788 66.4937 78.7055 66.4937 78.5504C66.5712 78.6143 66.6077 78.815 66.6077 79.1479V79.3942V79.5173L66.8359 79.4854C66.9134 79.23 67.0092 78.9883 67.1187 78.7739C67.2328 78.555 67.3651 78.3498 67.5157 78.1673V77.9211C67.5157 77.6748 67.5522 77.5471 67.6298 77.5379C67.7803 77.433 67.9309 77.3509 68.086 77.2917C68.118 77.278 68.1454 77.2689 68.1773 77.2689C68.3005 77.2506 68.4191 77.3008 68.5423 77.4148L68.8845 77.3692C69.0351 77.1868 69.1857 77.0819 69.3408 77.0591C69.4184 77.0499 69.4914 77.0591 69.5689 77.0864C69.7971 77.1776 69.9841 77.2096 70.1347 77.1913L70.4769 77.1457V76.7763C70.3993 76.7033 70.3628 76.5893 70.3628 76.4251C70.4404 76.416 70.5134 76.3841 70.591 76.3339C70.6685 76.2837 70.7415 76.2518 70.8191 76.2427C71.1202 76.5254 71.2708 76.7489 71.2708 76.9131C71.2708 77.0591 71.3256 77.1275 71.4351 77.1092C71.5081 77.1001 71.6039 77.0545 71.7271 76.9724C71.8777 76.9496 72.0282 76.8857 72.1834 76.7854C72.2609 76.6942 72.3659 76.6349 72.5256 76.6167V76.9861V77.4741L72.8678 77.0591C72.9453 76.9678 72.9818 76.8766 72.9818 76.7991C72.9818 76.4707 72.9818 76.1879 72.9818 75.9417L73.1963 75.4126C73.2328 75.367 73.2739 75.326 73.324 75.2849C73.3742 75.2211 73.4107 75.0706 73.429 74.8425L92.0905 28.6188C92.1726 28.441 92.2547 28.2631 92.3506 28.0852C92.5787 27.6474 92.7612 27.2095 92.9163 26.7808C93.0669 26.5163 93.1445 26.2609 93.1445 26.0146C93.1445 25.7683 93.222 25.5129 93.3726 25.2484C93.6007 24.6464 93.8836 24.0945 94.2258 23.5974C94.568 23.1003 94.8509 22.5895 95.0791 22.0695V21.8232V21.577C95.0791 21.4994 95.1156 21.4082 95.1931 21.317C95.3209 21.3945 95.4258 21.4265 95.5034 21.4128C95.5627 21.4037 95.6129 21.3717 95.6448 21.3124C95.7224 21.1802 95.7954 21.0662 95.873 20.9749C95.9505 20.8883 96.0646 20.8244 96.2152 20.8062V21.0525L95.5308 22.252C95.3802 22.5165 95.2479 22.8038 95.1338 23.1048C95.0198 23.4058 94.8874 23.6476 94.7369 23.8346C94.6593 23.9258 94.6228 24.0535 94.6228 24.2177C94.8509 24.1857 95.0015 24.1219 95.0791 24.0307C95.0791 23.8665 95.1931 23.5655 95.4213 23.1276L95.7635 23.082C95.8137 23.0227 95.8638 22.9862 95.914 22.9771C95.9414 22.9726 95.9642 22.9771 95.9916 22.9862C96.019 22.9954 96.0418 22.9999 96.0692 22.9954C96.1194 22.9862 96.1696 22.9543 96.2197 22.8905C96.1422 22.8996 96.2197 22.7673 96.4479 22.4891C96.4479 22.3249 96.5254 22.2337 96.676 22.2109V22.0878C96.7536 21.8324 96.8676 21.2851 97.0182 20.4504C97.0182 20.2863 96.9452 20.2178 96.7901 20.2361L96.4479 20.2817C96.4479 20.2042 96.4661 20.1586 96.5072 20.1494C96.5437 20.1449 96.5619 20.1038 96.5619 20.0172L96.676 19.8803C96.7536 19.5474 96.8494 19.2464 96.9635 18.9819C97.0775 18.7265 97.2098 18.4209 97.3604 18.0743L97.1323 17.9831C97.0547 17.9922 97 18.0241 96.9635 18.0697C96.927 18.1153 96.8677 18.1427 96.7946 18.1564C96.6441 18.3388 96.4935 18.4847 96.3384 18.5896V17.9785C96.4159 17.5589 96.603 17.1667 96.9087 16.7972C97.2099 16.4278 97.1003 16.0766 96.5711 15.7437C96.4981 15.3469 96.4388 14.9866 96.4023 14.6674C96.3658 14.3481 96.3475 13.9832 96.3475 13.5728V13.3265V13.2033C96.6486 12.9981 96.9726 12.8294 97.3148 12.7017C97.657 12.5739 98.0129 12.4417 98.3916 12.3049C98.9984 12.2182 99.5642 12.0996 100.093 11.9446C100.618 11.7895 101.147 11.5934 101.677 11.3562L102.019 10.6949C101.941 10.704 101.887 10.6995 101.85 10.6584C101.814 10.6219 101.754 10.6082 101.681 10.6219C101.604 10.7131 101.417 10.8637 101.12 11.0689C100.773 11.306 100.422 11.4474 100.08 11.493C99.8197 11.5295 99.5642 11.5113 99.3041 11.4429C99.6007 10.9914 99.9657 10.6767 100.386 10.4942C100.632 10.3848 100.874 10.3164 101.106 10.2844C101.266 10.2616 101.421 10.2571 101.572 10.2662C101.754 10.2707 101.928 10.2571 102.092 10.2343C102.416 10.1887 102.717 10.0929 102.991 9.94237C103.406 9.72801 103.803 9.54102 104.182 9.40876C104.711 9.25825 105.222 9.08038 105.715 8.88883C106.208 8.69727 106.719 8.48748 107.248 8.24575C107.773 8.01315 108.27 7.85809 108.722 7.79423C109.173 7.73038 109.588 7.59812 109.972 7.3792C110.419 7.31535 110.857 7.21501 111.272 7.07363C111.687 6.93224 112.125 6.79086 112.577 6.64491L112.691 6.38495L112.463 6.29373L112.235 6.20252C112.312 6.1113 112.385 6.05657 112.463 6.04745C112.842 5.83309 113.22 5.67802 113.599 5.58225C113.978 5.48647 114.357 5.3314 114.735 5.11705L114.849 4.98022C114.548 4.93917 114.585 4.81147 114.963 4.59711V4.47397L114.849 4.36908C114.772 4.3782 114.699 4.36908 114.621 4.34171C114.544 4.30978 114.471 4.30066 114.393 4.31435L114.165 4.22313C114.242 4.21401 114.315 4.15928 114.393 4.06806C114.544 3.88563 114.717 3.73512 114.904 3.63023C115.091 3.52533 115.265 3.37482 115.415 3.19239C115.643 2.83209 115.908 2.59492 116.209 2.46722C116.506 2.34408 116.816 2.22094 117.117 2.09324C117.268 2.07043 117.345 1.97922 117.345 1.81503C117.272 1.25405 117.418 0.84814 117.801 0.588174C118.176 0.33277 118.518 0.100169 118.823 -0.105067C119.426 -0.433444 119.937 -0.81199 120.352 -1.23614C120.694 -1.58733 121.1 -1.788 121.57 -1.85641C121.671 -1.8701 121.776 -1.87922 121.885 -1.87922C121.963 -1.88834 122.077 -1.98412 122.227 -2.17111C122.15 -2.16199 122.113 -2.17111 122.113 -2.21672C122.113 -2.2532 122.077 -2.27145 121.999 -2.26232L119.955 -1.97499C119.275 -1.71047 118.591 -1.49155 117.915 -1.3228C117.236 -1.14493 116.592 -0.967058 115.985 -0.80743C115.155 -0.520099 114.338 -0.223648 113.544 0.0864866C112.75 0.401182 111.938 0.661147 111.103 0.857262C110.2 1.14915 109.292 1.37719 108.384 1.54594C107.476 1.71469 106.604 1.93817 105.774 2.22094C103.502 2.70438 101.239 3.16502 98.9711 3.60742C96.7034 4.04982 94.3947 4.51502 92.054 5.00759C91.0639 5.3086 90.124 5.54576 89.216 5.70995C88.308 5.8787 87.3224 6.07937 86.2639 6.30741C83.3894 6.87295 80.5559 7.76231 77.7544 8.97092C74.9529 10.1795 72.1195 11.0278 69.245 11.5113C68.5651 11.6892 67.8625 11.8898 67.1461 12.1133C66.4252 12.3368 65.7317 12.6606 65.0518 13.0802L64.8237 12.989C64.6686 13.0118 64.4997 13.0574 64.3127 13.1212C64.1256 13.1897 63.9522 13.2307 63.8017 13.2535L63.5735 13.2854C63.4731 13.2626 63.3819 13.2581 63.3043 13.2672C63.0306 13.3037 62.8937 13.5454 62.8891 13.9924V14.2341C62.8891 14.6491 62.9074 15.0277 62.9439 15.388C62.9804 15.7391 63.1811 16.0128 63.5416 16.2043C63.2906 16.2864 63.0351 16.3731 62.775 16.4506L62.3233 16.5145C62.0222 16.5555 61.7393 16.5829 61.4701 16.5738C61.3834 16.5738 61.3058 16.5783 61.2328 16.5875C61.0777 16.6103 60.95 16.6559 60.845 16.7243C60.2382 17.1347 59.6724 17.5407 59.1431 17.942C58.6138 18.3434 58.0846 18.7447 57.5507 19.1461C57.4002 19.3285 57.2678 19.4288 57.1538 19.4471C57.0397 19.4608 56.9074 19.5246 56.7568 19.6249C56.4557 19.8302 56.1956 20.0309 55.9675 20.227C55.7393 20.4231 55.4701 20.6238 55.1736 20.829C55.096 20.9202 55.0595 20.9886 55.0595 21.0297C55.0595 21.0707 55.0184 21.1391 54.9454 21.2303C54.9454 21.3945 54.8679 21.5678 54.7173 21.7503C54.6397 21.8415 54.5622 21.9145 54.4892 21.9646C54.4116 22.0148 54.334 22.0878 54.261 22.179C53.9599 22.4663 53.5401 22.9315 53.0108 23.5792C53.0063 23.5883 53.0017 23.602 52.9971 23.6065C49.8078 26.9131 43.6755 33.9641 39.1904 43.6786C38.6611 43.9066 38.182 44.1575 37.7805 44.4311C37.5524 44.463 37.4383 44.3992 37.4383 44.235C37.2102 44.1848 37.0961 44.0799 37.1006 43.9157C37.5569 42.0549 37.9584 39.9615 38.3052 37.6264C38.6474 35.3004 39.0854 33.5217 39.6147 32.3085C39.7653 32.1261 39.9387 31.898 40.1257 31.6244C40.3174 31.3507 40.3721 31.141 40.2991 30.9904C40.0755 30.4523 40.0573 29.9643 40.2444 29.531C40.436 29.0977 40.6048 28.669 40.7554 28.2357C40.8329 28.1491 40.906 28.0898 40.9835 28.0807C41.1341 28.1445 41.2527 28.1673 41.3394 28.1582C41.4261 28.1445 41.4763 28.0989 41.4945 28.0122C41.531 27.8481 41.5904 27.7112 41.6634 27.62C41.8139 27.4421 41.8915 27.2187 41.8915 26.9769L41.4033 27.018C41.3257 27.0271 41.2527 27.0226 41.1752 26.9906C41.0976 26.9633 41.0246 26.9541 40.947 26.9678C41.1752 26.7717 41.4398 26.4068 41.7455 25.8778C41.8961 25.6954 42.0101 25.5768 42.0877 25.5221C42.1653 25.4719 42.2793 25.3533 42.4299 25.1663C42.5805 24.4913 42.658 23.9121 42.658 23.4195C42.7356 23.2462 42.7721 22.9954 42.7721 22.667C42.6991 22.3523 42.6215 22.0741 42.5485 21.8415C42.4755 21.6089 42.3615 21.2988 42.2109 20.9111L42.0968 20.8062C41.9463 20.7469 41.8504 20.7195 41.8139 20.7241C41.7774 20.7287 41.6816 20.7013 41.531 20.642C41.6086 20.4687 41.6816 20.2954 41.7592 20.1221C41.8367 19.9488 41.9098 19.7754 41.9873 19.6021C42.0649 19.5155 42.1561 19.4425 42.2702 19.3787C42.3843 19.3239 42.439 19.219 42.439 19.0503C42.5896 18.6216 42.5896 18.2932 42.439 18.0697C42.2885 17.7687 42.1926 17.4586 42.1561 17.1302C42.1196 16.8155 42.0238 16.6239 41.8732 16.5646C41.5721 16.364 41.2117 16.2682 40.7964 16.2864C40.3812 16.3047 39.9432 16.3457 39.4915 16.4096L39.2634 16.6878C39.1128 16.8702 38.9622 17.0344 38.8117 17.1804C38.7752 17.2123 38.7387 17.2305 38.7067 17.2396C38.5881 17.2579 38.474 17.1165 38.3554 16.8201C38.2778 16.7471 38.1683 16.7243 38.0178 16.7425C37.9311 16.738 37.8489 16.738 37.7714 16.7516C37.4976 16.7881 37.2603 16.9341 37.0505 17.1849C36.8406 17.4358 36.5805 17.5863 36.2611 17.6273C36.1699 17.641 36.074 17.6456 35.9737 17.641C35.8733 17.6273 35.7729 17.6273 35.6725 17.641C35.4718 17.6684 35.271 17.7505 35.0657 17.8873C34.7645 18.0925 34.6094 18.4802 34.6094 19.0457C34.4588 19.1552 34.3083 19.292 34.1531 19.479C32.3326 21.8552 30.6444 24.277 29.0976 26.7398C27.5418 29.2026 26.0452 31.7111 24.6034 34.2833C22.9334 37.3756 21.2635 40.3629 19.5981 43.2453C17.9281 46.1323 16.2947 49.1151 14.7023 52.189C14.6247 52.3623 14.57 52.5357 14.5289 52.7044C14.4924 52.8732 14.3966 53.051 14.246 53.2335C14.1684 53.3247 14.0772 53.4022 13.9631 53.4569C13.8491 53.5117 13.7943 53.5846 13.7943 53.6667C13.5662 54.1046 13.2833 54.515 12.9411 54.889C12.5989 55.263 12.5031 55.7236 12.6536 56.2755L12.4255 56.4306C12.2749 56.613 12.1472 56.7772 12.0331 56.914C11.919 57.0508 11.8186 57.2105 11.7502 57.3838C11.6681 57.7213 11.5951 58.0588 11.5221 58.3963C11.4673 58.6198 11.3167 58.752 11.0658 58.7885C10.938 58.8068 10.792 58.8022 10.6141 58.7703C10.5365 58.7794 10.459 58.8341 10.386 58.9253C9.92968 59.1534 9.51447 59.3951 9.13577 59.6459C8.75706 59.9105 8.34185 60.1522 7.88558 60.3711L7.77152 60.3848C7.69395 60.3939 7.65745 60.4258 7.65745 60.4623C7.65745 60.5079 7.62095 60.5307 7.54338 60.5399C7.69395 60.517 7.78977 60.5307 7.82627 60.5627C7.86277 60.6037 7.92208 60.6128 7.99509 60.5991L9.24527 60.4258C9.32284 60.5034 9.39584 60.5718 9.47341 60.6402C9.55097 60.7177 9.62398 60.8272 9.70154 60.9777L9.58748 61.2377C9.43691 61.5022 9.24527 61.7621 9.01714 61.9902C8.789 62.2273 8.789 62.5329 9.01714 62.9069C9.0947 62.8978 9.0947 62.9388 9.01714 63.0301C8.93957 63.4496 8.7525 63.8419 8.4468 64.2113C8.36923 64.3025 8.31448 64.3527 8.27798 64.3572C8.24147 64.3618 8.18216 64.412 8.10916 64.5032L7.88102 64.2888C7.80345 64.2159 7.73045 64.1657 7.65288 64.1383C7.57532 64.1064 7.50232 64.0562 7.42475 63.9878C7.42475 64.152 7.34718 64.3253 7.19661 64.5077V65.1189C7.04604 65.1417 6.76316 65.5248 6.34339 66.2773C5.92818 67.0299 5.43084 67.9557 4.86507 69.0549C4.29473 70.154 3.70614 71.3353 3.09929 72.6032C2.49702 73.8711 1.94493 75.0295 1.45215 76.0785C0.959381 77.1275 0.580676 77.9895 0.311476 78.6873C0.0742148 79.2984 -0.0261649 79.604 0.00577406 79.5994C0.0103368 79.5994 0.0148995 79.5949 0.0240249 79.5857V79.8275C0.243035 79.8913 0.512235 79.9004 0.831625 79.8548C1.06432 79.8229 1.3244 79.7591 1.61185 79.6724C2.29169 79.4489 2.7799 79.2026 3.08561 78.9153C3.46431 78.2038 3.97534 77.506 4.62324 76.8037C4.97913 76.4114 5.36696 76.1879 5.78217 76.1287C6.11525 76.083 6.46658 76.1423 6.83616 76.3065C7.00498 76.3567 7.14642 76.3704 7.26049 76.3567C7.4065 76.3385 7.50688 76.2655 7.57076 76.1423C7.68482 75.9234 7.81714 75.7592 7.96771 75.6589C8.49699 75.5859 8.85744 75.2074 9.04908 74.5278C9.24071 73.8483 9.60116 73.269 10.1304 72.7856C10.2034 72.6944 10.1669 72.4937 10.0164 72.1881C9.93881 72.0376 9.86124 71.9236 9.78824 71.8506C10.2445 70.8883 10.8285 69.7481 11.554 68.4255C12.2704 67.1028 13.0688 65.7848 13.9403 64.4804C14.8118 63.176 15.6833 61.9719 16.5547 60.8682C17.4262 59.7645 18.2429 58.9618 19.0004 58.4419C19.2285 58.1637 19.5479 57.8809 19.9677 57.5753C20.3783 57.2743 20.7022 57.0645 20.9304 56.9505C21.6102 56.6905 22.1806 56.3485 22.6323 55.9152C23.0885 55.4819 23.6178 55.0213 24.2247 54.5287C24.3752 54.4238 24.5669 54.3372 24.7904 54.2642C25.0186 54.1912 25.2056 54.1046 25.3562 53.9997C25.3562 54.1639 25.3927 54.3417 25.4703 54.5333C25.5433 54.7248 25.5844 54.9073 25.5844 55.0669C25.5844 55.2311 25.525 55.3588 25.4155 55.4591C25.3015 55.5549 25.2056 55.6917 25.1326 55.865C25.1326 56.1113 25.1509 56.3302 25.1874 56.5309C25.2239 56.7316 25.2422 56.9095 25.2422 57.0736C25.0916 57.4203 24.9593 57.703 24.8452 57.922C24.7311 58.1454 24.6353 58.4236 24.5577 58.7566C23.7958 61.2285 23.1707 63.3767 22.6733 65.201C22.176 67.0253 21.7197 68.7767 21.3 70.4687C20.8802 72.1608 20.4239 73.9167 19.9357 75.741C19.4338 77.5607 18.8087 79.6678 18.0513 82.0577C17.9737 82.3952 17.9007 82.6688 17.8232 82.8832C17.7456 83.0976 17.6726 83.3347 17.595 83.5901C17.5175 84.0097 17.4992 84.3563 17.5357 84.6391C17.5722 84.9173 17.4034 85.2092 17.0247 85.5057V85.9937V86.7234C16.8741 86.9925 16.7418 87.2752 16.6277 87.5763C16.5137 87.8773 16.2673 88.1372 15.8886 88.3516C15.738 88.4565 15.6239 88.7347 15.5464 89.1953C15.4688 89.656 15.3912 90.0938 15.3182 90.5134C15.3182 90.6776 15.3547 90.8327 15.4323 90.9877C15.5099 91.1428 15.5053 91.3024 15.4323 91.4757C15.4323 91.722 15.3547 91.8543 15.2042 91.8771C15.0536 91.8999 14.9395 91.9957 14.862 92.169C14.7114 92.6798 14.5198 93.1952 14.2916 93.7197C14.0635 94.2396 13.8719 94.8325 13.7213 95.512C13.4932 96.7617 13.3198 98.0296 13.2057 99.3112C13.0916 100.593 12.9183 101.902 12.6856 103.238C12.608 103.411 12.535 103.667 12.4574 104.004C12.3799 104.337 12.4164 104.538 12.5715 104.602C12.8726 104.88 13.0415 105.163 13.0825 105.45C13.119 105.724 13.1738 106.066 13.2513 106.467L13.4795 106.677L13.7076 106.403V105.915C13.7852 105.737 13.8764 105.559 13.9905 105.386C14.1046 105.204 14.2369 105.021 14.3875 104.839C14.465 104.985 14.5015 105.131 14.5015 105.249C14.5015 105.372 14.538 105.505 14.6156 105.66C14.6156 105.819 14.6886 105.97 14.8437 106.111V105.628C14.9213 105.45 14.9943 105.3 15.0719 105.167C15.1494 105.035 15.2224 104.875 15.3 104.707C15.3776 104.529 15.4323 104.396 15.4688 104.314C15.5053 104.228 15.5281 104.105 15.5281 103.94C15.6787 103.265 15.7973 102.659 15.8703 102.116C15.9479 101.573 16.0985 100.962 16.3266 100.278C16.4042 100.023 16.4224 99.6943 16.3859 99.2884C16.3494 98.887 16.5958 98.6453 17.1251 98.5723V98.4492C16.9745 97.8973 17.1296 97.2269 17.5814 96.4288C17.7319 96.2463 17.8277 95.9864 17.8642 95.658C17.9007 95.3205 17.9966 95.0286 18.1517 94.7595C18.3798 94.1575 18.608 93.5737 18.8361 93.0127C19.0642 92.4517 19.2513 91.8725 19.4064 91.2796C19.5524 90.8509 19.6665 90.486 19.7486 90.1896C19.8216 89.8931 19.9357 89.5328 20.0908 89.0996C20.2369 88.9171 20.433 88.7256 20.6566 88.5295C20.8848 88.3333 21.0718 88.1053 21.227 87.8362L21.4551 87.558C21.3045 87.5808 21.1905 87.5535 21.1129 87.485C21.0353 87.4942 20.9258 87.4896 20.7707 87.4714C20.6201 87.4531 20.6201 87.3893 20.7707 87.2889C20.9213 86.6139 21.0764 86.1442 21.227 85.8842C21.3045 85.7884 21.3775 85.7383 21.4551 85.7291C21.5327 85.72 21.6057 85.6197 21.6832 85.4509V85.9389C21.6057 86.1077 21.5692 86.2354 21.5692 86.322C21.5692 86.3996 21.5327 86.5273 21.4551 86.7006V86.9469L21.5692 86.9332C21.5692 86.9742 21.5783 86.9925 21.5965 86.9925C21.6148 86.9879 21.6422 86.9651 21.6832 86.9195C21.8338 86.5729 21.9661 86.2491 22.0802 85.9526C22.1943 85.647 22.2125 85.3825 22.1395 85.1499C21.9889 84.7577 21.9707 84.4567 22.0848 84.2378C22.1988 84.0188 22.3676 83.768 22.5958 83.4943C22.9745 83.1158 23.1661 82.8011 23.1661 82.5594C23.1661 82.3131 23.2437 81.9756 23.3942 81.5469C24.7631 78.1719 26.0361 75.1207 27.2132 72.3842C28.3904 69.6478 29.4672 67.0481 30.4573 64.5898C31.4429 62.127 32.3554 59.7143 33.195 57.3519C34.0299 54.9939 34.7554 52.5493 35.3623 50.0135C35.3623 49.8493 35.4398 49.7581 35.5904 49.7353C35.741 49.6304 35.9691 49.562 36.2702 49.5164C36.3432 49.4252 36.4208 49.2929 36.4984 49.1151L36.2702 49.147C35.9691 49.0284 35.8185 48.9235 35.8185 48.8414C35.8961 48.6681 35.9873 48.4492 36.1014 48.1892C36.2155 47.9292 36.1972 47.7331 36.0467 47.5872C36.0467 47.0992 36.1607 46.7161 36.3889 46.4424C36.617 46.1597 36.8816 45.9225 37.1828 45.7173C37.3288 45.5348 37.4657 45.4345 37.5797 45.4162C37.6938 45.4026 37.8216 45.3433 37.9767 45.2384C38.2459 45.0331 38.5014 44.8097 38.7523 44.5679C37.5615 47.2543 36.5029 50.1321 35.6725 53.1878C31.6391 68.0059 38.6383 70.2361 40.7006 70.569C40.8101 70.5964 40.906 70.6147 40.9926 70.6283C41.2938 70.6694 41.5767 70.6694 41.8459 70.6329C42.1105 70.5964 42.3934 70.5964 42.6945 70.6375C43.0732 70.6648 43.4519 70.715 43.8307 70.7834C44.2094 70.8518 44.5881 70.902 44.9668 70.9293C45.0443 70.9613 45.1265 70.9658 45.2223 70.9567C45.3181 70.943 45.423 70.9065 45.5325 70.8518C45.6466 70.7971 45.7424 70.7606 45.8154 70.7515C45.893 70.7424 45.9478 70.7515 45.9843 70.788C46.1074 70.9978 46.2306 71.0935 46.3447 71.0753C46.436 71.0616 46.5227 70.9795 46.6093 70.8245C46.7325 70.5873 46.8694 70.4596 47.0109 70.4413C47.0839 70.4322 47.1569 70.4459 47.2344 70.4915C47.4626 70.4596 47.7226 70.3 48.0284 70.0126C48.2063 69.8393 48.3614 69.7435 48.4892 69.7299C48.5759 69.7162 48.6443 69.739 48.7082 69.7983C48.9135 69.9032 49.055 69.9488 49.1234 69.9397C49.1827 69.9305 49.1964 69.8849 49.1599 69.7937C49.0869 69.6022 49.0869 69.4562 49.1599 69.365C49.3105 69.2601 49.4063 69.1689 49.4428 69.0822C49.4793 68.9956 49.5751 68.8998 49.7257 68.7995L49.8397 68.9044C49.8397 68.9864 49.858 69.0457 49.8945 69.0822C49.931 69.1187 49.9493 69.178 49.9493 69.2601C49.9493 69.178 49.9675 69.1141 50.0086 69.0685C50.0451 69.0229 50.0633 68.918 50.0679 68.7538C50.1455 68.6626 50.182 68.5942 50.182 68.5532C50.182 68.5121 50.2185 68.4437 50.296 68.3525C50.3736 68.4255 50.4466 68.4528 50.5242 68.4437C50.6017 68.4346 50.6747 68.462 50.7523 68.5349C50.8299 68.5258 50.8664 68.5577 50.8664 68.6398C50.9439 68.6307 50.9804 68.5851 50.9804 68.503C50.9074 67.942 50.9804 67.6045 51.2086 67.4905C51.3226 67.4358 51.4549 67.3947 51.6055 67.3719C51.7561 67.3491 51.9249 67.3491 52.1165 67.3628C52.1667 67.3811 52.2169 67.3902 52.2625 67.381C52.3538 67.3674 52.4405 67.3035 52.5135 67.1804C52.6276 67.0025 52.7599 66.8201 52.9105 66.6331C53.061 66.5282 53.1386 66.3959 53.1386 66.2317C53.1386 66.0675 53.2162 65.9763 53.3667 65.9535C53.4443 65.9033 53.5219 65.8714 53.6086 65.8577C53.6952 65.8441 53.7819 65.8532 53.8778 65.8805C54.0603 65.9353 54.2336 65.9535 54.3888 65.9307C54.4618 65.9216 54.5211 65.9535 54.5576 66.031C54.5941 66.1086 54.6534 66.1405 54.7264 66.1314C54.7994 66.1223 54.8542 66.0721 54.8952 65.9854C54.9317 65.8988 54.9911 65.8486 55.0641 65.8395L54.7219 65.8851L54.4937 65.7939C54.3386 65.5704 54.3614 65.3241 54.553 65.0505C54.7401 64.7814 54.95 64.5853 55.1781 64.4713C55.4063 64.4393 55.6298 64.3892 55.858 64.3162C56.0861 64.2432 56.1545 64.0106 56.0861 63.6093C56.1591 63.6001 56.2321 63.55 56.3097 63.4542C56.3872 63.4451 56.4237 63.4177 56.4237 63.3767C56.4237 63.3356 56.4602 63.3083 56.5378 63.2991C56.766 63.2672 57.0306 63.249 57.3317 63.249C57.391 63.249 57.4504 63.2444 57.5051 63.2353C57.7241 63.2034 57.8929 63.1167 58.0116 62.9662C58.4678 62.501 58.9789 62.1224 59.5446 61.8306C60.1104 61.5524 60.5484 61.0643 60.8541 60.3665C60.9317 60.2753 61.0047 60.2206 61.0823 60.2115C61.1598 60.2024 61.2328 60.1476 61.3104 60.0564C61.388 60.0473 61.461 60.0747 61.5385 60.1476L61.4245 60.4076L61.3104 60.6676C61.388 60.5763 61.461 60.5216 61.5385 60.5125C61.7667 60.3164 61.9948 60.1431 62.2184 59.988C62.4465 59.8329 62.6747 59.6596 62.8982 59.4635C63.3545 59.0713 63.8062 58.7247 64.2625 58.4145C64.7188 58.1044 65.1659 57.7578 65.6267 57.3655C65.7727 57.2652 65.8868 57.1466 65.9644 57.0144C66.0419 56.8821 66.156 56.8046 66.3066 56.7818C67.2146 56.3257 68.0678 55.7601 68.8617 55.076C69.6556 54.3919 70.3948 53.6759 71.0792 52.9279C71.1568 52.8412 71.2115 52.7455 71.248 52.6588C71.2754 52.5995 71.3347 52.5265 71.4259 52.4536C71.3073 52.5493 71.1932 52.6634 71.0746 52.8047C70.924 52.9096 70.7324 52.9735 70.5088 53.0054L70.2807 52.9142C70.4313 52.8184 70.5818 52.6725 70.737 52.4809L70.851 52.3441C70.7735 52.2802 70.7005 52.2438 70.6229 52.2529C70.3218 52.4627 70.0526 52.6998 69.829 52.978C69.6009 53.2563 69.3362 53.498 69.0351 53.7032C68.8845 53.8081 68.7704 53.8628 68.6929 53.872C68.6153 53.8811 68.5058 53.9404 68.3507 54.0407C68.2731 54.1319 68.2001 54.1867 68.1225 54.1958C68.045 54.2049 68.0085 54.2916 68.0085 54.4558C67.9309 54.547 67.8168 54.889 67.6663 55.4819C67.5887 55.5731 67.5157 55.6279 67.4381 55.637C67.3606 55.6461 67.2511 55.7054 67.0959 55.8057C67.1735 55.6324 67.2283 55.523 67.2648 55.4774C67.3013 55.4318 67.3606 55.3223 67.4336 55.149C67.4336 55.0669 67.4518 55.003 67.4929 54.9574C67.5294 54.9118 67.5476 54.848 67.5522 54.7659L67.3241 54.6747C67.1735 54.6154 67.0594 54.588 66.9819 54.6017C66.9043 54.6108 66.8313 54.5835 66.7537 54.5105C66.6032 54.287 66.5484 54.1091 66.5849 53.9814C66.6214 53.8537 66.7172 53.7807 66.8678 53.7579C67.0184 53.7351 67.1689 53.6987 67.3241 53.6348C67.4746 53.571 67.5522 53.4661 67.5522 53.2973L67.6663 53.2836V53.5299L67.8944 53.7443C68.045 53.7215 68.159 53.6667 68.2366 53.5755C68.3872 53.3931 68.5377 53.165 68.6929 52.9005C68.8434 52.636 68.994 52.4125 69.1492 52.2255C69.5279 51.8515 69.9431 51.4867 70.3993 51.1355C70.8556 50.7843 71.2708 50.4194 71.6495 50.0409C71.7271 49.9497 71.7818 49.8585 71.8183 49.7718C71.8548 49.6852 71.9142 49.5939 71.9872 49.5027C71.832 49.5255 71.7408 49.5164 71.7043 49.4799C71.6906 49.4662 71.6723 49.4617 71.6495 49.4662C71.5993 49.4754 71.5218 49.5118 71.4214 49.5803C71.2708 49.6031 71.1568 49.6578 71.0792 49.749C71.0016 49.8402 70.8876 49.9406 70.737 50.0409C69.902 50.5654 69.0716 51.1127 68.2366 51.6737C67.4016 52.2438 66.5712 52.8275 65.7362 53.4341C65.207 53.6759 64.7324 53.9632 64.3218 54.3052C63.9066 54.6473 63.4275 54.9392 62.9028 55.1764C62.5241 55.4728 62.1089 55.7373 61.6526 55.9654C61.1963 56.1934 60.7446 56.4215 60.2884 56.6449C59.3804 57.1785 58.4724 57.7578 57.5644 58.3735C56.6564 58.9892 55.753 59.5684 54.845 60.102C53.7865 60.6584 52.7827 61.2285 51.8337 61.8123C50.8892 62.3961 49.8854 62.9616 48.8223 63.5135C48.2154 63.8419 47.6131 64.111 47.0109 64.3208C46.3995 64.5305 45.8017 64.754 45.1949 65.0049C44.985 65.0824 44.7843 65.1371 44.5972 65.1645C43.8489 65.2694 43.2923 64.9547 42.9272 64.225C42.5485 63.3858 42.4755 62.0905 42.7082 60.3437C42.9364 58.597 43.3789 56.686 44.0223 54.588C44.6702 52.5037 45.4869 50.3465 46.4725 48.1299C47.4534 45.9088 48.5166 43.8473 49.6572 41.9364C50.7934 40.0208 51.9158 38.3972 53.0108 37.0563M30.722 36.5957V37.0837C30.1927 37.7313 29.9235 38.461 29.9235 39.2729C29.9235 39.6879 29.8824 40.0345 29.8094 40.331C29.7319 40.6274 29.6178 40.9923 29.4672 41.421C29.3897 41.5943 29.303 41.7722 29.1889 41.95C29.0748 42.1279 28.9379 42.3514 28.7919 42.6159C28.6368 43.0446 28.5227 43.4277 28.4497 43.7652C28.3722 44.1027 28.2946 44.4402 28.2216 44.7777C28.144 45.1973 28.1212 45.5668 28.1623 45.886C28.1942 46.2098 28.144 46.5017 27.9889 46.7662C27.6056 47.309 27.4003 47.87 27.3638 48.4401C27.3227 49.0147 27.1174 49.5757 26.7387 50.1184C26.0543 50.9485 25.2969 51.587 24.4665 52.0294C23.6315 52.4718 22.7646 52.8823 21.8566 53.2517C21.6285 53.2836 21.4414 53.352 21.2908 53.4524C21.4414 53.1058 21.519 52.8275 21.519 52.6269C21.519 52.4216 21.5965 52.2301 21.7471 52.0431C22.0483 51.5916 22.3175 51.1674 22.5456 50.7706C22.7737 50.3693 22.9654 49.9999 23.1159 49.6487C23.8003 48.659 24.179 47.8335 24.2566 47.1676C24.4072 46.7389 24.6353 46.3603 24.941 46.032C25.2422 45.7036 25.4703 45.325 25.6254 44.8963L25.7395 44.8826C25.5889 44.2487 25.7395 43.7607 26.1958 43.4095C26.652 43.0583 26.9167 42.5931 26.9942 42.0139C27.0718 41.348 27.4094 40.5316 28.0208 39.5419C28.249 39.1087 28.6231 38.648 29.157 38.16C29.303 37.9821 29.4399 37.7359 29.5539 37.4349C29.668 37.1338 29.7957 36.8921 29.9463 36.7051L30.6262 36.2399C30.6262 36.322 30.6444 36.3585 30.6809 36.3539C30.7174 36.3494 30.7357 36.3859 30.7357 36.468L30.722 36.5957ZM82.4723 15.2557C82.3172 15.3606 82.2259 15.4108 82.1894 15.4199C82.1483 15.4244 82.0571 15.4792 81.9065 15.5841L81.5643 15.6297L80.9985 15.7072L81.3407 15.2922C81.4913 15.1873 81.6373 15.128 81.797 15.1052C81.9476 15.0824 82.0936 15.0231 82.2533 14.9182L82.4814 15.0094L82.4723 15.2557ZM87.1217 14.9684C86.67 15.0322 86.2502 15.1326 85.8715 15.2648C85.7939 15.1918 85.6069 15.0961 85.3057 14.9775C85.4563 14.9547 85.5886 14.8954 85.7027 14.7996C85.8168 14.7038 85.9491 14.6446 86.0996 14.6217C86.3278 14.5077 86.6654 14.4211 87.1217 14.3572C87.2723 14.3344 87.4228 14.3983 87.5734 14.5397C87.4228 14.7221 87.2723 14.868 87.1217 14.9684ZM68.7705 66.3594L68.775 66.3549L68.4374 67.3674C68.4693 67.0755 68.5743 66.738 68.7705 66.3594Z" fill="white"/>
<path d="M79.2925 17.5407C79.8081 17.4085 80.3237 17.2488 80.8392 17.0664C80.7252 17.0892 80.6065 17.112 80.4833 17.1257C80.0681 17.185 79.6712 17.3218 79.2925 17.5407Z" fill="white"/>
<path d="M83.4902 16.0903C83.4081 16.1223 83.3214 16.1451 83.2347 16.1633C83.2256 16.1724 83.2165 16.1815 83.2119 16.1907C83.3032 16.1587 83.3944 16.1268 83.4902 16.0903Z" fill="white"/>
<path d="M65.3621 72.3433L65.248 72.3569C65.1705 72.4482 65.1339 72.5348 65.1339 72.6169V72.9863C64.9788 73.0091 64.8647 72.9818 64.7917 72.9134L64.9058 72.6534V72.5302C64.8237 72.5394 64.7735 72.5713 64.737 72.6169C64.6959 72.6625 64.6366 72.6899 64.5682 72.7036L64.4541 72.7172L64.7917 73.7708C65.0199 73.6568 65.1339 73.5199 65.1339 73.3558C65.28 73.0091 65.3621 72.7948 65.3621 72.7127V72.3433Z" fill="white"/>
<path d="M113.517 28.2676C113.595 28.0122 113.668 27.7431 113.745 27.4421C113.823 27.1502 113.859 26.8766 113.859 26.6303C113.937 26.2153 113.992 25.8002 114.033 25.3852C114.069 24.9702 114.092 24.5597 114.092 24.1538C114.092 23.7479 114.11 23.4149 114.151 23.1641C114.188 22.9132 114.133 22.635 113.982 22.3295C113.453 21.6681 112.924 21.2121 112.395 20.9612C111.788 20.8016 111.185 20.5599 110.579 20.2361C110.428 20.1768 110.131 20.1768 109.675 20.2406L109.561 20.3774C109.479 20.5507 109.392 20.7058 109.278 20.8472C109.228 20.9065 109.178 20.9384 109.123 20.9475C109.05 20.9567 108.968 20.9247 108.881 20.8426C108.726 20.8654 108.612 20.9202 108.539 21.0114C108.462 21.1847 108.384 21.2987 108.311 21.3489C108.233 21.3991 108.156 21.472 108.083 21.5632C107.782 21.9327 107.494 22.3203 107.23 22.7217C106.965 23.1276 106.641 23.5198 106.262 23.8984C106.185 24.0717 106.13 24.2222 106.093 24.3499C106.057 24.4776 105.998 24.6281 105.925 24.8014C105.468 25.5175 105.012 26.3156 104.56 27.1913C101.449 33.0975 98.7931 39.1816 96.5894 45.4436C95.5262 48.2029 94.4631 50.8983 93.3955 53.539C92.3323 56.1751 91.2738 58.8706 90.2107 61.6298C89.9825 62.0677 89.8685 62.3733 89.8685 62.5329C89.7179 62.7153 89.6038 62.9798 89.5263 63.3173C89.4487 63.6548 89.3346 63.9969 89.1841 64.3435V64.4667C89.1841 64.6308 89.1476 64.8589 89.07 65.1553C88.9924 65.4518 88.9559 65.6753 88.9559 65.844C88.5772 66.3001 88.3491 66.7014 88.2715 67.0435C88.2715 67.2031 88.2898 67.34 88.3263 67.4631C88.3628 67.5771 88.381 67.6729 88.381 67.755C88.2305 68.1016 88.1164 68.4437 88.0388 68.7812C87.9613 69.1187 87.8472 69.4607 87.6966 69.8074C87.6966 69.9715 87.6601 70.1403 87.5826 70.3136C87.505 70.4869 87.432 70.6602 87.3544 70.8335C87.3544 71.4036 87.2404 71.7867 87.0122 71.9828C86.8616 72.2474 86.8023 72.4617 86.8388 72.6168C86.8753 72.7764 86.8206 72.9862 86.6654 73.2508C86.5149 73.4332 86.4373 73.6703 86.4373 73.9577C86.4373 74.245 86.3962 74.5551 86.3232 74.8926C86.5514 74.6965 86.7202 74.4913 86.8343 74.2678C86.9483 74.0489 87.0807 73.8437 87.2312 73.6612L87.3453 73.6475L87.6829 73.9668V73.7205L87.797 73.5837C87.8746 73.4104 87.9111 73.2416 87.9111 73.0774C87.9111 72.9133 87.9886 72.7399 88.1392 72.5575C88.1392 72.4754 88.1757 72.4298 88.2533 72.4207L88.3673 72.5256V72.6487L88.4814 72.5119C88.632 72.407 88.7095 72.2975 88.7095 72.1744C88.7095 72.0513 88.746 71.9053 88.8236 71.732C89.0518 71.2942 89.2799 70.8335 89.508 70.3501C89.7362 69.8712 89.9643 69.4106 90.1924 68.9682C90.27 68.6307 90.3658 68.3342 90.4799 68.0697C90.5939 67.8097 90.7217 67.5042 90.8768 67.1621C91.0274 66.893 91.1187 66.592 91.1643 66.2636C91.1962 65.9261 91.292 65.6753 91.4472 65.4883C91.4472 65.3195 91.4837 65.1553 91.5612 64.982C91.6342 64.8042 91.7073 64.6354 91.7894 64.4621C91.9354 64.1976 92.086 63.9102 92.2457 63.6047C92.3917 63.2991 92.6198 63.0026 92.9255 62.7153L93.1536 62.4371V62.8065V62.9297C93.2312 62.9206 93.2677 62.8749 93.2677 62.7928C93.4958 62.355 93.724 61.8944 93.9521 61.4109C94.1802 60.932 94.4084 60.4714 94.6365 60.029V59.9059C94.9376 59.8648 95.1293 59.7325 95.2068 59.5182C95.2844 59.3038 95.3985 59.0621 95.5491 58.7976C95.6266 58.6243 95.6996 58.451 95.7772 58.2777C95.8548 58.1043 95.9688 57.9265 96.1194 57.7395L96.2335 57.7258C96.2335 57.4795 96.3475 57.2652 96.5757 57.0645L96.6897 57.0508V57.1739C96.6122 57.3473 96.5757 57.5571 96.5757 57.8033C96.5757 58.0496 96.4981 58.305 96.3475 58.5695L96.5757 58.5376C96.7262 58.4327 96.8403 58.378 96.9179 58.3689C96.9954 58.3598 97.1049 58.2594 97.2601 58.077V57.9538V57.0964L97.146 57.1101C97.146 57.2743 97.1278 57.3974 97.0867 57.4841C97.0502 57.5707 97.0274 57.6939 97.0274 57.8581V58.1043L96.7992 58.1363C96.7992 58.0542 96.7627 57.9766 96.6852 57.9082C96.8357 57.4795 96.9909 57.1329 97.1414 56.8684C97.292 56.5993 97.5202 56.3667 97.8213 56.1614L98.1635 56.1158C98.4646 56.0748 98.6198 55.9288 98.6198 55.6826C98.8479 55.0805 99.1536 54.5059 99.5323 53.9631C99.6829 53.6165 99.8152 53.311 99.9293 53.051C100.043 52.791 100.171 52.4854 100.326 52.1388C100.472 51.9564 100.568 51.7375 100.609 51.4866C100.632 51.2996 100.76 51.1902 100.979 51.1583C101.052 51.1491 101.138 51.1446 101.234 51.1537L101.458 50.9986C101.535 50.8253 101.59 50.652 101.636 50.4833C101.668 50.3145 101.727 50.1047 101.805 49.8493L102.033 49.8174L102.147 49.6806C102.206 49.6897 102.265 49.6897 102.316 49.6806C102.521 49.6532 102.653 49.5027 102.717 49.2336C102.795 49.2245 102.831 49.1971 102.831 49.1561C102.831 49.115 102.868 49.0877 102.945 49.0785L103.059 49.0648V49.3111V49.5574C102.982 49.7307 102.909 49.8858 102.831 50.0181C102.754 50.1503 102.681 50.3054 102.603 50.4787V50.8481C102.603 50.766 102.621 50.725 102.662 50.7159C102.699 50.7113 102.717 50.6246 102.722 50.465C102.872 50.2826 103.005 50.1184 103.119 49.9816C103.233 49.8447 103.365 49.7216 103.516 49.6213C103.516 49.6395 103.52 49.6441 103.525 49.6441C103.547 49.6395 103.621 49.4981 103.744 49.2199L104.086 49.1743V49.2974V49.5437C104.086 49.6258 104.122 49.7855 104.2 50.0181C104.2 50.3464 104.163 50.5927 104.086 50.7706C103.707 51.3133 103.707 51.6417 104.086 51.7512C104.136 51.7968 104.205 51.815 104.287 51.8059C104.328 51.8013 104.373 51.7876 104.424 51.7648C104.574 51.701 104.688 51.6235 104.766 51.5322C104.916 51.2677 105.108 50.9941 105.336 50.7159C105.564 50.4376 105.751 50.2096 105.906 50.0226C106.057 49.676 106.23 49.3431 106.417 49.0329C106.609 48.7228 106.778 48.4309 106.928 48.1664C107.157 47.8152 107.366 47.4914 107.554 47.2223C107.745 46.9486 107.951 46.6431 108.179 46.2782C108.329 46.1003 108.443 45.9954 108.521 45.9863C108.594 45.9772 108.703 45.9225 108.863 45.8176C109.693 44.1574 110.451 42.4152 111.135 40.6091C111.82 38.7985 112.162 37.0015 112.166 35.2046C112.166 34.8762 112.13 34.5752 112.052 34.3015C111.979 34.0279 112.016 33.6722 112.166 33.2434V32.5092C112.395 32.3951 112.509 32.1762 112.509 31.8478C112.586 31.9208 112.659 31.9482 112.737 31.9391C112.814 31.9299 112.887 31.9573 112.965 32.0303C113.243 32.2173 113.476 32.2994 113.658 32.272C113.873 32.2401 114.019 32.0668 114.101 31.7475C114.329 31.1455 114.293 30.7396 113.992 30.5389C113.512 29.9369 113.366 29.1843 113.517 28.2676ZM104.41 48.2621V48.3853C104.41 48.4674 104.373 48.5586 104.296 48.6453C104.218 48.7365 104.145 48.8687 104.068 49.0466L103.954 48.8186V48.6954L104.41 48.1436V48.2621Z" fill="white"/>
<path d="M96.2246 58.8343C96.2794 58.8252 96.3113 58.7613 96.325 58.6655C96.3159 58.6883 96.3022 58.6975 96.2839 58.702C96.2429 58.7066 96.2246 58.7522 96.2246 58.8343Z" fill="white"/>
<path d="M116.1 13.1031C116.592 12.8705 117.135 12.6516 117.747 12.4418C118.349 12.2365 118.938 12.0313 119.503 11.8261C120.069 11.6254 120.471 11.4658 120.694 11.3518C122.131 10.7406 123.514 10.1386 124.837 9.54568C126.156 8.95277 127.575 8.46933 129.09 8.09078C129.468 8.03605 129.811 7.90835 130.112 7.70312C130.413 7.33369 130.568 6.86393 130.568 6.29383C130.796 5.69637 130.778 5.03961 130.513 4.34637C130.249 3.64857 129.874 3.01006 129.382 2.42627C128.889 1.84249 128.364 1.30432 127.803 0.811752C127.237 0.319186 126.726 -0.0183131 126.274 -0.196184C125.713 -0.57017 125.125 -0.711554 124.504 -0.624899C124.454 -0.615778 124.399 -0.606656 124.349 -0.597534C124.285 -0.583852 124.226 -0.57473 124.162 -0.565609C123.541 -0.478954 122.925 -0.579291 122.305 -0.862061C122.154 -0.679629 122.004 -0.533683 121.849 -0.428785C121.698 -0.0821641 121.319 0.378476 120.712 0.953137C118.97 2.5859 117.345 4.20042 115.83 5.80126C114.316 7.4021 113.138 9.35869 112.303 11.6756C112.153 11.858 112.057 12.0769 112.02 12.3278C111.984 12.5786 111.925 12.7884 111.847 12.9617C111.697 13.4725 111.541 13.9423 111.391 14.371C111.24 14.7997 111.085 15.2284 110.935 15.6571C110.935 15.8213 110.971 15.9764 111.049 16.1315V16.2546L111.277 16.2227L112.413 16.0631C112.792 16.0083 113.152 15.9171 113.49 15.7894C113.832 15.6617 114.115 15.3744 114.343 14.9365C114.493 14.7541 114.644 14.5489 114.799 14.3208C114.95 14.0974 115.1 13.8921 115.255 13.7051C115.324 13.5364 115.607 13.3357 116.1 13.1031Z" fill="white"/>
<path d="M149.8 30.1467C150.552 28.9792 151.086 27.7432 151.392 26.4343C151.698 25.1253 151.926 23.6066 152.081 21.8689C151.556 19.3377 150.936 17.0983 150.219 15.16C149.503 13.2262 148.057 11.5934 145.866 10.2708C145.264 9.94697 144.694 9.6414 144.165 9.34495C143.635 9.05306 143.298 8.46927 143.147 7.58904C143.147 7.42485 143.074 7.27434 142.919 7.13296C142.089 6.35306 141.144 5.89242 140.09 5.7556C139.415 5.66894 138.744 5.6735 138.069 5.76472C137.686 5.81945 137.298 5.90155 136.914 6.01556C136.084 6.3029 135.249 6.78178 134.414 7.47046C133.579 8.15914 132.785 8.88431 132.032 9.6414C131.193 10.4122 130.44 11.2742 129.76 12.2274C129.076 13.1806 128.396 14.152 127.711 15.1417C126.197 17.2306 124.622 19.552 122.994 22.1061C121.365 24.6601 119.882 27.2962 118.554 30.0054C117.226 32.7236 116.236 35.4646 115.588 38.2513C114.945 41.0334 114.922 43.7288 115.515 46.333C115.889 47.9931 116.665 49.2109 117.833 49.9862C119.006 50.7615 120.233 51.3818 121.515 51.8561C122.346 52.148 123.194 52.3761 124.066 52.5403C124.467 52.6178 124.896 52.6224 125.339 52.5631C125.85 52.4901 126.388 52.3305 126.954 52.0751C127.789 51.7148 128.619 51.4548 129.45 51.2952C130.28 51.1355 131.111 50.8391 131.946 50.3921C133.529 49.5164 135.158 48.3306 136.828 46.8301C138.397 45.4163 139.397 43.7744 139.83 41.9045C139.803 42.096 139.789 42.315 139.789 42.5567C141.755 40.6548 143.553 38.6891 145.182 36.6641C146.825 34.6391 148.358 32.4682 149.8 30.1467ZM142.499 19.9762C142.385 20.4414 142.367 20.9111 142.44 21.39C142.59 22.9179 142.148 24.7285 141.13 26.831C140.104 28.9336 139.214 30.6895 138.457 32.1033C137.544 33.8638 136.463 35.5604 135.213 37.2069C133.962 38.8533 132.803 40.4405 131.749 41.9775C131.448 42.2648 131.065 42.7665 130.613 43.478C130.308 44.0116 129.797 44.5725 129.08 45.1609C128.359 45.7538 127.602 46.2053 126.808 46.52C126.448 46.6614 126.101 46.7572 125.772 46.8028C125.375 46.8575 125.001 46.8438 124.654 46.7617C124.011 46.6067 123.696 46.0411 123.696 45.0605C123.696 44.1666 123.714 43.3092 123.751 42.4883C123.792 41.6673 124.002 40.819 124.381 39.9525C126.279 35.939 128.519 32.0942 131.097 28.4273C133.67 24.7604 136.248 21.1209 138.826 17.4951C139.433 16.6741 140.076 15.8897 140.761 15.1417C140.989 14.8635 141.231 14.6948 141.495 14.6081C141.514 14.6035 141.536 14.599 141.555 14.5944C141.792 14.5625 141.979 14.7586 142.116 15.1919C142.266 15.7437 142.381 16.2774 142.454 16.7973C142.527 17.3172 142.641 17.8508 142.791 18.4027C142.709 18.9865 142.613 19.511 142.499 19.9762Z" fill="white"/>
<path d="M172.349 37.0061C172.121 36.7963 171.934 36.582 171.783 36.3585C171.706 36.2855 171.614 36.2171 171.5 36.1533C171.386 36.0894 171.331 35.9754 171.331 35.8112C171.409 35.5558 171.505 35.2958 171.614 35.0359C171.728 34.7759 171.861 34.4703 172.011 34.1237C172.089 33.9504 172.071 33.768 171.957 33.581C171.842 33.394 171.751 33.2207 171.674 33.0702C171.372 32.9516 171.108 32.5593 170.88 31.898C170.656 31.2367 170.615 30.6894 170.775 30.2607C170.775 30.0965 170.775 29.9141 170.775 29.7088C170.775 29.5082 170.734 29.3303 170.656 29.1752C170.506 28.3041 170.51 27.4193 170.661 26.5482C170.816 25.668 170.588 24.9063 169.99 24.2541C170.141 23.0911 170.277 21.805 170.396 20.4048C170.51 19.0047 170.565 17.5908 170.569 16.1633C170.574 14.7358 170.46 13.363 170.241 12.0494C170.017 10.7359 169.634 9.55013 169.114 8.47834C168.89 7.85807 168.927 7.19676 169.233 6.50351C169.306 6.3302 169.401 6.11129 169.515 5.85132C169.63 5.59136 169.721 5.33139 169.798 5.07599C169.871 4.73849 170.004 4.39643 170.195 4.04068C170.382 3.6895 170.364 3.28359 170.141 2.82295C169.757 2.22549 169.383 1.70556 169.009 1.26772C168.626 0.829884 168.142 0.57904 167.535 0.496946L165.833 -0.000181157C165.564 -0.105079 165.322 -0.146127 165.112 -0.114201C164.62 -0.0457891 164.291 0.401169 164.131 1.22211C164.054 1.23123 163.94 1.45471 163.789 1.88343C160.522 9.76905 157.429 17.7048 154.504 25.6999C151.584 33.695 148.751 41.7585 146.013 49.8904C145.785 50.4924 145.575 51.1537 145.383 51.8743C145.196 52.5949 145.027 53.3338 144.868 54.0909C145.023 54.0681 145.137 54.0954 145.21 54.1638C145.287 55.7829 145.703 56.6221 146.451 56.6814C146.62 56.6951 146.793 56.686 146.976 56.6632C147.614 56.5719 148.349 56.2481 149.175 55.6871L149.403 55.6552C149.928 55.8376 150.402 55.8969 150.836 55.8331C151.652 55.7191 152.309 55.1718 152.802 54.1958C153.637 52.1206 154.399 50.1367 155.084 48.2485C156.224 45.3934 157.324 42.5475 158.392 39.7061C159.455 36.8693 160.705 34.0827 162.147 31.3507C162.297 31.1683 162.43 31.0269 162.544 30.9266C162.658 30.8354 162.79 30.694 162.941 30.5024C163.018 30.6621 163.073 30.8126 163.109 30.9676C163.146 31.1273 163.205 31.3234 163.278 31.556C163.278 31.6381 163.296 31.6974 163.333 31.7338C163.369 31.7703 163.388 31.8296 163.388 31.9117C163.538 31.7293 163.616 31.5925 163.616 31.5104C163.766 31.3279 163.844 31.1729 163.844 31.0497C163.844 30.9266 163.881 30.7852 163.958 30.6073C163.958 30.6894 163.995 30.7852 164.072 30.8992C164.15 31.0132 164.186 31.1501 164.186 31.3097V31.7977C164.186 31.8798 164.109 32.0121 163.958 32.199C163.881 32.3724 163.789 32.4681 163.675 32.4818C163.561 32.4955 163.465 32.5502 163.392 32.646C163.392 32.7281 163.465 32.9196 163.62 33.2252C163.62 33.3073 163.693 33.4989 163.844 33.8044C163.844 33.9686 163.826 34.1556 163.785 34.3654C163.748 34.5752 163.725 34.8033 163.725 35.045C163.648 35.2183 163.611 35.4509 163.611 35.7337C163.611 36.021 163.611 36.2855 163.611 36.5272C163.461 36.7097 163.347 36.8921 163.269 37.0654C163.192 37.2387 163.119 37.4531 163.041 37.7085C162.963 37.7997 162.986 37.859 163.096 37.8772C163.21 37.9092 163.306 37.9092 163.379 37.9C163.379 37.9685 163.397 38.0004 163.433 37.9958C163.488 37.9867 163.584 37.9 163.721 37.7359C163.78 37.412 163.862 37.2433 163.963 37.2296C163.995 37.225 164.027 37.2342 164.063 37.257C164.214 37.3573 164.364 37.4804 164.515 37.6218C164.665 38.2558 164.738 38.8532 164.738 39.4233L164.624 39.437C164.474 39.6286 164.36 39.7791 164.282 39.9113C164.204 40.0436 164.204 40.1531 164.282 40.2169C164.811 40.9603 164.697 41.6673 163.94 42.3468C163.789 42.5292 163.712 42.7071 163.712 42.8667C163.712 43.0309 163.634 43.2042 163.484 43.3867L163.255 43.9066L163.484 43.8747C163.675 43.7652 163.817 43.7059 163.908 43.6923C164.004 43.6786 164.049 43.7151 164.049 43.7926C164.049 43.9568 164.086 44.1529 164.163 44.3901C164.236 44.951 164.273 45.4573 164.273 45.9042C164.273 46.3512 164.538 46.7434 165.067 47.0718C165.144 47.1493 165.144 47.2497 165.067 47.3774C164.989 47.5096 164.953 47.6647 164.953 47.8198C164.953 48.0661 164.935 48.2713 164.893 48.44C164.857 48.6088 164.798 48.8186 164.72 49.074C164.793 49.5529 164.944 49.9998 165.172 50.4194C165.4 50.8345 165.322 51.2769 164.944 51.7375C164.944 51.9838 164.98 52.1799 165.058 52.335C165.738 53.1377 166.454 53.4843 167.211 53.3794C167.362 53.3566 167.494 53.3794 167.608 53.4478C167.722 53.5116 167.855 53.5755 168.005 53.6348C168.457 53.8172 168.872 53.8811 169.251 53.8263C169.525 53.9358 169.821 53.9677 170.145 53.9221C170.364 53.8902 170.592 53.8263 170.834 53.726C171.592 53.2927 172.367 52.9187 173.161 52.604C173.955 52.2894 174.772 51.9108 175.602 51.4638L175.716 51.327C176.401 50.497 176.871 49.6532 177.14 48.8003C177.404 47.9475 177.724 47.0444 178.107 46.0958C178.481 44.6591 178.906 43.2544 179.357 41.8862C179.814 40.5179 180.27 39.1041 180.726 37.6538C180.877 37.4713 181.009 37.3071 181.123 37.1703C181.237 37.0335 181.333 36.883 181.406 36.7006C181.634 36.509 181.821 36.3813 181.972 36.3129C182.122 36.2582 182.049 36.0848 181.744 35.793C181.666 35.7291 181.648 35.6242 181.689 35.5011C181.725 35.3688 181.748 35.2274 181.748 35.0632C181.899 35.0404 182.049 35.1043 182.2 35.2411L182.314 35.3506C182.391 35.2593 182.428 35.1316 182.428 34.9674C182.35 34.8169 182.241 34.5022 182.09 34.037C182.241 33.6083 182.433 33.1933 182.661 32.7919C182.889 32.3906 183.076 31.9801 183.231 31.5514C183.231 31.3872 183.423 30.995 183.801 30.3702C183.879 30.1969 183.97 30.0418 184.084 29.9004C184.198 29.7636 184.331 29.5994 184.481 29.417C184.559 29.3257 184.673 29.1068 184.823 28.7556L184.481 28.8013C184.404 28.7283 184.253 28.71 184.029 28.742C184.107 28.6507 184.144 28.5641 184.144 28.482C184.144 28.3999 184.18 28.3132 184.258 28.222C184.408 28.0396 184.582 27.8572 184.769 27.6611C184.96 27.4695 184.937 27.2278 184.714 26.9359C184.636 26.872 184.659 26.8082 184.773 26.7443C184.887 26.6942 184.983 26.5756 185.056 26.3977C185.134 26.3111 185.248 26.0921 185.398 25.7364C185.476 25.5676 185.549 25.3715 185.626 25.1572C185.699 24.9428 185.813 24.7421 185.969 24.5597L186.197 24.4046C186.27 24.3955 186.311 24.3499 186.311 24.2678C186.384 23.3602 186.612 22.4298 186.995 21.4766C186.995 21.3124 187.068 21.1802 187.223 21.0753C187.369 20.8928 187.52 20.7469 187.68 20.642C187.826 20.5416 187.903 20.4048 187.903 20.2452C188.054 19.8165 188.168 19.3513 188.25 18.8496C188.323 18.3479 188.551 17.9101 188.93 17.5315C189.007 17.4449 189.121 17.2579 189.272 16.9933C189.194 16.9295 189.044 16.9021 188.82 16.9341L188.478 16.9797C188.629 16.5555 188.784 16.3229 188.934 16.3047C189.313 16.0949 189.559 15.8486 189.674 15.5886C189.788 15.3287 189.92 14.9866 190.071 14.5579C190.148 14.3846 190.166 14.2204 190.13 14.0608C190.093 13.9011 190.112 13.7369 190.189 13.5636C190.34 13.217 190.495 12.9297 190.645 12.7062C190.796 12.4827 190.951 12.1954 191.102 11.8488C191.179 11.5113 191.293 11.2103 191.444 10.9457C191.594 10.6812 191.75 10.4121 191.9 10.1476C191.9 9.9834 191.937 9.77361 192.014 9.5182C192.092 9.2628 192.165 9.04844 192.242 8.87513C191.864 8.84776 191.658 8.79303 191.617 8.72006C191.581 8.64253 191.617 8.55587 191.731 8.4601C191.845 8.36432 192.014 8.21837 192.242 8.02226C192.32 8.01314 192.356 7.96753 192.356 7.88544C192.356 7.8079 192.393 7.71669 192.47 7.62547V7.9949C192.548 7.98577 192.585 8.05875 192.585 8.22294L192.813 7.94473C192.963 7.51601 193.059 7.1329 193.1 6.80453C193.137 6.47615 193.232 6.13865 193.388 5.78747C193.538 5.19913 193.748 4.66095 194.013 4.17295C194.277 3.68494 194.524 3.14221 194.752 2.54018C195.131 1.91535 195.505 1.00775 195.893 -0.191735C195.966 -0.282951 196.007 -0.4517 196.007 -0.697983C196.007 -1.35018 195.724 -1.94308 195.158 -2.47669C194.592 -3.01031 194.008 -3.31132 193.401 -3.39341C193.023 -3.41622 192.758 -3.43902 192.607 -3.46639C192.457 -3.48007 192.229 -3.55304 191.928 -3.67618C191.777 -3.73091 191.585 -3.78564 191.362 -3.84037C191.134 -3.88598 190.947 -3.94071 190.796 -4C190.267 -3.92703 189.924 -3.83581 189.774 -3.73547C189.473 -3.36605 189.226 -3.02399 189.035 -2.71842C188.843 -2.39916 188.638 -2.06622 188.414 -1.71504C188.031 -1.00356 187.707 -0.39241 187.447 0.136643C187.178 0.665695 186.89 1.23579 186.594 1.84694C184.394 5.99271 182.665 10.4121 181.406 15.1189C180.151 19.821 178.874 24.3043 177.587 28.5595C177.432 28.9061 177.258 29.2163 177.076 29.4899C176.884 29.7636 176.752 30.1056 176.679 30.5252C176.451 31.3735 176.223 32.2218 175.995 33.0702C175.766 33.9185 175.424 34.7394 174.968 35.5421C174.667 35.9115 174.439 36.3083 174.284 36.7325C174.133 37.1658 173.905 37.6446 173.599 38.1737C173.672 38.3333 173.599 38.4382 173.371 38.5112C173.143 38.5887 172.956 38.7119 172.801 38.8989C172.801 38.8213 172.819 38.7119 172.86 38.5842C172.896 38.4565 172.878 38.3196 172.805 38.1646C172.805 38.087 172.769 38.046 172.691 38.0597C172.614 38.0688 172.541 38.0049 172.463 37.8453C172.463 37.7678 172.385 37.7313 172.235 37.7541L172.463 37.4759" fill="white"/>
<path d="M123.482 73.2235C123.158 72.4345 122.697 71.7595 122.113 71.2167C121.397 70.5463 120.507 70.0036 119.472 69.6022C118.454 69.2054 117.318 68.8999 116.095 68.6946C114.863 68.4894 113.572 68.348 112.267 68.275C111.35 68.2249 110.442 68.1929 109.566 68.1838C109.278 68.1793 108.996 68.1793 108.708 68.1838C108.799 67.8281 108.886 67.4678 108.959 67.1166C109.05 66.6742 109.16 66.2227 109.288 65.7301C110.971 64.5489 112.737 63.3311 114.681 61.9994C116.561 60.7178 118.372 59.3495 120.056 57.9357C120.576 57.4933 121.164 56.9779 121.808 56.3987C122.492 55.783 122.971 55.1263 123.218 54.4832C123.368 54.1867 123.446 53.8948 123.45 53.6257V53.6029L123.446 53.5801C123.364 52.9234 123.067 52.4719 122.56 52.2438C122.232 52.0933 121.803 52.0158 121.292 52.0112C121.114 52.0112 120.918 52.0158 120.717 52.034C119.814 52.0933 118.901 52.2575 118.002 52.522C117.122 52.782 116.273 53.0374 115.447 53.2837C113.467 53.9268 111.482 54.6656 109.543 55.4729C107.627 56.2756 105.733 57.1786 103.94 58.1409C103.602 58.3006 103.205 58.5286 102.749 58.8114C102.206 59.1534 101.919 59.5411 101.891 59.9926C101.901 60.736 102.389 60.7999 102.535 60.8044C102.567 60.8044 102.603 60.8044 102.635 60.7999C102.745 60.7862 102.859 60.7771 102.982 60.7816C103.105 60.7816 103.233 60.7908 103.356 60.8044C103.557 60.8364 103.735 60.8729 103.894 60.9048C103.94 60.9139 103.986 60.9185 104.027 60.9185C104.182 60.923 104.437 60.8729 104.615 60.549L104.629 60.5171C104.725 60.2891 104.729 60.0975 104.647 59.9379C104.634 59.9151 104.62 59.8923 104.602 59.8695L106.678 58.8752C107.376 58.5377 108.11 58.2139 108.859 57.9038C108.749 58.9573 108.567 59.9789 108.316 60.9458C108.037 62.0267 107.764 63.1624 107.49 64.3299C107.088 64.6401 106.678 64.9274 106.272 65.1782C105.806 65.4701 105.336 65.7894 104.862 66.136C104.629 66.3185 104.387 66.4963 104.141 66.6651C103.867 66.8566 103.621 67.0482 103.379 67.2489C103.114 67.4723 102.886 67.7323 102.69 68.0242C102.489 68.3298 102.352 68.6992 102.284 69.1279L102.275 69.1826L102.284 69.2374C102.37 69.6889 102.589 70.0127 102.945 70.2088C103.247 70.3776 103.598 70.487 103.981 70.5417C104.259 70.5828 104.561 70.6056 104.88 70.6102C104.985 70.6102 105.094 70.6102 105.204 70.6056C105.459 70.5965 105.71 70.5919 105.943 70.5919C105.163 73.7069 104.492 77.0044 103.945 80.4022C103.402 83.7817 102.818 87.143 102.211 90.4131C102.197 90.3493 102.183 90.29 102.165 90.2261C102.069 89.8795 101.814 89.6743 101.453 89.6743C101.376 89.6743 101.298 89.6834 101.216 89.6971L101.129 89.7153L101.061 89.7746C100.783 90.0209 100.696 90.3493 100.828 90.664C100.892 90.8236 100.933 91.0152 100.951 91.2113C100.951 91.3937 100.938 91.5761 100.906 91.7586L100.837 92.2192C99.934 92.6023 98.9849 92.9626 98.0131 93.2956C96.9682 93.6559 95.8595 93.9113 94.7051 94.0618C94.3583 94.1211 93.9705 94.1712 93.5553 94.2123C93.5097 94.2168 93.4686 94.2168 93.423 94.2168C93.2314 94.2168 93.0808 94.1621 92.9622 94.0481C93.0671 93.7288 93.204 93.4643 93.3728 93.2682C93.5781 93.0174 93.8108 92.7528 94.0755 92.4518L94.1028 92.4199C94.2671 92.1782 94.4907 91.9775 94.7736 91.8179C95.1842 91.5853 95.4443 91.2067 95.5173 90.7278L95.5401 90.5865L95.4534 90.4724C95.2344 90.1851 94.9789 90.1258 94.8009 90.1212C94.7781 90.1212 94.7507 90.1212 94.7234 90.1258C94.4998 90.144 94.2853 90.2261 94.08 90.3721C93.9203 90.4861 93.7561 90.6275 93.6009 90.7826C93.4641 90.9194 93.3454 91.0334 93.2314 91.1337C92.9439 91.4165 92.6701 91.7038 92.4009 91.9866C92.1089 92.2922 91.8762 92.5658 91.6892 92.8212L91.639 92.8896L91.6253 92.9717C91.6025 93.1131 91.566 93.218 91.5021 93.2956C91.3835 93.4506 91.2876 93.6559 91.2055 93.9523C91.0184 94.8782 91.3789 95.3388 91.7211 95.5623C92.1272 95.8268 92.5606 96.0001 93.0397 96.0776C93.2724 96.1005 93.5142 96.1141 93.7469 96.1187C93.7743 96.1187 93.7971 96.1187 93.8245 96.1187C94.2853 96.1187 94.7599 96.0776 95.2344 96.0001C95.9644 95.877 96.699 95.7173 97.4154 95.5167C98.15 95.3069 98.8161 95.0925 99.4549 94.8599C99.9933 94.6638 100.504 94.4951 100.974 94.3537C101.038 94.4358 101.093 94.5179 101.143 94.5908C101.28 94.7869 101.508 94.8873 101.828 94.8918C101.887 94.8918 101.96 94.8873 102.033 94.8827L102.11 94.8645C102.53 94.7185 102.845 94.4814 103.041 94.1667C103.196 93.9204 103.351 93.6467 103.497 93.3503C105.491 92.5202 107.44 91.5397 109.283 90.4359C111.158 89.314 113.029 88.0598 114.836 86.7098C115.73 86.0393 116.583 85.3461 117.377 84.6483C118.171 83.9459 118.992 83.1752 119.823 82.3405C120.548 81.5789 121.287 80.685 122.027 79.6907C122.789 78.66 123.304 77.5061 123.551 76.2747C123.838 75.0615 123.815 74.0399 123.482 73.2235ZM121.543 75.0569C121.511 75.6544 121.379 76.2336 121.155 76.7764C120.927 77.3328 120.676 77.8345 120.407 78.2677C119.59 79.563 118.605 80.7306 117.469 81.7385C116.314 82.7647 115.151 83.727 114.01 84.5936C112.317 85.8751 110.611 87.0427 108.95 88.0689C107.462 88.9902 105.897 89.8385 104.291 90.6001C104.62 89.0768 104.916 87.5262 105.177 85.9846C105.478 84.1968 105.793 82.4089 106.107 80.6165C106.413 78.8926 106.746 77.1139 107.097 75.3215C107.412 73.7161 107.773 72.1107 108.179 70.5509C108.781 70.5463 109.383 70.5463 109.977 70.5509C110.647 70.5554 111.327 70.5737 111.984 70.5965C113.289 70.6421 114.521 70.7789 115.653 71.0069C116.775 71.235 117.815 71.5588 118.751 71.9693C119.649 72.3661 120.398 72.8814 120.977 73.5017C121.114 73.7434 121.246 73.9852 121.383 74.2314C121.493 74.4412 121.548 74.724 121.543 75.0569ZM106.687 67.5499C106.609 67.7961 106.545 68.0196 106.504 68.2157C106.24 68.2203 105.98 68.234 105.724 68.2522C105.688 68.2568 105.651 68.2568 105.61 68.2613C105.77 68.1473 105.934 68.0379 106.098 67.9375C106.304 67.8144 106.5 67.6867 106.687 67.5499ZM110.807 57.0783C111.455 56.7864 112.13 56.5082 112.86 56.23C113.618 55.9426 114.425 55.6553 115.251 55.3771C116.282 55.035 117.318 54.7203 118.331 54.4376C119.097 54.2278 119.919 54.1229 120.754 54.132C120.836 54.132 120.918 54.1366 121 54.1366C120.754 54.4649 120.471 54.7705 120.142 55.0578C119.64 55.4957 119.129 55.9335 118.618 56.3714C117.181 57.5572 115.662 58.7247 114.097 59.833C112.769 60.7816 111.396 61.7166 110.008 62.6242C110.068 62.3551 110.132 62.0815 110.196 61.7987C110.332 61.2058 110.451 60.6266 110.547 60.0747C110.652 59.4955 110.729 58.9254 110.78 58.3827C110.83 57.922 110.839 57.4842 110.807 57.0783Z" fill="white"/>
<path d="M130.44 64.5488C130.851 62.8522 131.252 61.1875 131.654 59.5411C131.955 58.3416 132.288 57.1056 132.639 55.8696C132.995 54.6154 133.251 53.2928 133.397 51.9565C133.451 51.5871 133.465 51.1903 133.438 50.7388C133.397 50.155 133.018 49.8129 132.393 49.8083H132.265L132.215 49.854H132.069L131.969 49.9543C131.636 50.2872 131.426 50.684 131.339 51.1447C131.27 51.5186 131.175 51.8972 131.056 52.2849L130.417 54.7021C129.277 58.8342 128.213 63.021 127.255 67.1348C126.293 71.2851 125.439 75.6954 124.718 80.238C124.554 81.0954 124.417 82.0076 124.303 82.9471C124.189 83.8684 124.048 84.8125 123.874 85.7565L123.87 85.7885C123.838 86.1807 123.797 86.6049 123.742 87.0564C123.683 87.5626 123.642 88.0552 123.628 88.5478C123.601 88.9491 123.605 89.3824 123.642 89.8385C123.692 90.3994 124.011 90.7233 124.522 90.7278C124.527 90.7278 124.527 90.7278 124.531 90.7278C124.582 90.7278 124.641 90.7233 124.696 90.7187C124.992 90.7141 125.234 90.5454 125.38 90.2444C125.48 90.0255 125.553 89.7792 125.594 89.5146C125.631 89.2638 125.658 89.0038 125.663 88.7393C125.672 88.5113 125.69 88.3015 125.718 88.1008C126.101 84.8033 126.63 81.6245 127.296 78.6508C127.94 75.7593 128.597 72.7264 129.254 69.6478C129.637 67.9421 130.034 66.2272 130.44 64.5488Z" fill="white"/>
<path d="M140.378 66.0994L140.319 66.0264L140.232 65.9945C140.15 65.9671 140.068 65.9352 139.986 65.9033C139.862 65.8531 139.721 65.8303 139.561 65.8303H139.543H139.525C139.173 65.8668 138.813 66.0766 138.457 66.4415C138.138 66.7698 137.832 67.1438 137.545 67.5452C137.275 67.9192 137.038 68.2567 136.828 68.5714C136.783 68.2111 136.637 67.9146 136.395 67.6774C136.13 67.422 135.815 67.2898 135.455 67.2852C135.45 67.2852 135.446 67.2852 135.441 67.2852C135.154 67.2852 134.843 67.3673 134.524 67.5315C134.159 67.7048 133.808 67.9876 133.47 68.3616C133.174 68.6945 132.881 69.0502 132.594 69.4197C131.832 70.4413 131.102 71.6362 130.431 72.9725C129.751 74.318 129.25 75.7318 128.939 77.1776L128.93 77.2141V77.2506C128.939 77.9164 129.154 78.368 129.574 78.5914L129.633 78.6142C129.774 78.6553 129.916 78.6781 130.053 78.6826C130.317 78.6872 130.555 78.6142 130.787 78.4683C131.075 78.2813 131.335 78.0715 131.545 77.8526C132.183 77.3007 132.777 76.6622 133.315 75.9598C133.817 75.2985 134.323 74.6509 134.825 74.0261C135.496 73.1778 136.18 72.2838 136.856 71.3717C137.225 70.8746 137.599 70.3911 137.978 69.9305C137.681 71.1072 137.389 72.2337 137.102 73.3374C136.669 74.9975 136.372 76.7078 136.231 78.4637C136.231 78.6325 136.208 78.8742 136.162 79.1707C136.112 79.4945 136.085 79.8228 136.085 80.1512C136.089 80.507 136.13 80.7943 136.212 81.0178C136.331 81.3553 136.596 81.5514 136.947 81.5514H136.951C137.175 81.5514 137.481 81.4465 137.7 80.9494C137.823 80.662 137.928 80.3337 138.019 79.9688C138.106 79.6039 138.174 79.2482 138.224 78.9016L138.352 78.0578C138.735 76.156 139.146 74.3499 139.58 72.6852C140.018 70.9886 140.415 69.1688 140.766 67.2715L140.775 67.2168L140.766 67.1621C140.688 66.6878 140.565 66.3366 140.378 66.0994ZM135.281 69.0229C135.35 69.1004 135.364 69.2509 135.332 69.4744C135.272 69.8666 135.281 70.2041 135.359 70.4869C134.524 71.5587 133.698 72.6487 132.9 73.7296C132.316 74.5186 131.7 75.2438 131.056 75.9006C131.193 75.4855 131.344 75.0887 131.517 74.7102C131.855 73.9668 132.197 73.2644 132.526 72.6259C132.891 71.9783 133.283 71.3398 133.703 70.7377C134.1 70.1631 134.533 69.634 134.994 69.1597C135.081 69.1278 135.163 69.0913 135.236 69.0457C135.25 69.0366 135.268 69.032 135.281 69.0229Z" fill="white"/>
<path d="M175.296 70.0127L175.274 69.8987L175.187 69.8257C175.032 69.6934 174.867 69.625 174.699 69.625C174.516 69.625 174.361 69.6889 174.21 69.8257C174.083 69.9397 173.95 70.0036 173.804 70.0218L173.731 70.0309L173.667 70.072C173.138 70.414 172.613 70.7516 172.098 71.0799C171.582 71.4083 171.062 71.7504 170.578 72.0833C169.52 72.7081 168.448 73.333 167.362 73.9578C166.285 74.5781 165.163 75.1345 164.022 75.6225C163.474 75.8688 162.899 76.1287 162.288 76.3887C161.699 76.6441 161.074 76.863 160.426 77.0455C159.788 77.2233 159.126 77.351 158.46 77.4194C158.209 77.4468 157.949 77.4559 157.689 77.4559C157.388 77.4514 157.077 77.4286 156.767 77.3875C156.813 77.164 156.854 76.936 156.89 76.7079C156.931 76.4434 157 76.1561 157.1 75.8323C157.839 75.0387 158.624 74.2725 159.436 73.5519C160.285 72.7993 161.115 72.0605 161.914 71.3353C162.188 71.0845 162.484 70.8291 162.794 70.5646C163.16 70.2544 163.401 69.8485 163.511 69.3696L163.529 69.2967L163.511 69.2237C163.452 68.9683 163.251 68.7448 162.909 68.5715L162.854 68.5441L162.794 68.535C162.735 68.5259 162.676 68.5259 162.621 68.5259C162.297 68.5213 162.014 68.6125 161.745 68.7995C161.499 68.9728 161.243 69.1553 160.997 69.3514C160.308 69.8896 159.646 70.4597 159.026 71.0434C158.67 71.3809 158.318 71.7002 157.967 72.0058C158.556 69.6114 159.19 67.2169 159.865 64.8818C160.627 62.2457 161.453 59.6186 162.32 57.0646C162.589 56.2573 162.899 55.4318 163.233 54.6154C163.575 53.7763 163.835 52.896 164.004 51.9884L164.022 51.8927L163.985 51.8014C163.917 51.6372 163.839 51.4822 163.748 51.3362C163.666 51.2085 163.493 51.058 163.146 51.0535C163.086 51.0535 163.027 51.058 162.94 51.0672C162.448 51.1492 162.064 51.5369 161.8 52.2165C161.576 52.7866 161.385 53.2974 161.229 53.7398C159.998 57.0646 158.866 60.5217 157.853 64.0153C157.347 65.7575 156.858 67.559 156.393 69.3742C156.233 69.4654 156.064 69.5566 155.891 69.6478C155.704 69.7436 155.544 69.8485 155.417 69.958C155.093 70.1632 154.805 70.3639 154.531 70.5691C154.244 70.7835 153.966 70.9887 153.696 71.1803C152.538 72.0559 151.401 72.9271 150.274 73.789C149.17 74.6374 148.016 75.4765 146.852 76.2838C146.246 76.6669 145.643 77.0819 145.064 77.5198C144.566 77.8938 143.95 78.1309 143.22 78.2267C143.061 78.0625 142.969 77.8436 142.942 77.5608C142.906 77.1595 142.928 76.7262 143.015 76.2747C143.102 75.8049 143.225 75.3215 143.385 74.8471C143.558 74.3409 143.718 73.9259 143.887 73.5701C144.233 72.8085 144.658 72.0696 145.146 71.3718C145.529 70.8291 145.967 70.4095 146.46 70.1176C146.465 70.1313 146.469 70.1495 146.469 70.1632C146.506 70.3593 146.565 70.5509 146.647 70.7242C146.734 70.9157 146.861 71.0754 147.021 71.1985C147.153 71.3034 147.313 71.3627 147.5 71.3627C147.601 71.3627 147.715 71.349 147.833 71.3125L147.893 71.2943L147.943 71.2578C148.194 71.0708 148.331 70.7744 148.353 70.3684C148.372 70.0902 148.408 69.8348 148.472 69.6022L148.486 69.5521L148.481 69.4973C148.431 68.6718 148.107 68.1109 147.519 67.8326L147.459 67.8098C147.309 67.7688 147.167 67.7505 147.026 67.7505L146.62 67.746C146.515 67.746 146.451 67.7688 146.387 67.8098C146.236 67.8418 146.104 67.8874 145.99 67.9375C145.899 67.9831 145.78 68.0333 145.634 68.088L145.557 68.1291C144.37 69.0002 143.312 70.2955 142.408 71.9738C142.062 72.6306 141.751 73.3558 141.482 74.1311C141.204 74.9292 141.021 75.7183 140.939 76.4799C140.852 77.2598 140.88 77.985 141.012 78.6326C141.163 79.3441 141.532 79.8777 142.112 80.2152L142.176 80.2426C142.536 80.3611 142.892 80.4204 143.234 80.425C143.243 80.425 143.252 80.425 143.266 80.425C143.754 80.425 144.224 80.3064 144.667 80.0738C145.36 79.7135 146.008 79.3213 146.592 78.9017C147.975 77.9302 149.321 76.8721 150.589 75.7547C151.844 74.651 153.112 73.602 154.363 72.6397L155.672 71.6272C155.736 71.5771 155.804 71.5269 155.873 71.4767C155.604 72.5804 155.339 73.6978 155.088 74.8198C154.896 75.0752 154.687 75.3352 154.472 75.5997C154.185 75.9509 153.97 76.3568 153.838 76.8083C153.687 77.3419 153.701 77.7706 153.888 78.1081C154.007 78.327 154.144 78.5505 154.299 78.7877L153.975 80.8948C153.861 81.6473 153.774 82.3953 153.728 83.1159C153.71 83.4123 153.683 83.7453 153.637 84.1694C153.596 84.5662 153.587 84.9219 153.614 85.2594C153.646 85.6197 153.719 85.9162 153.833 86.1762C153.97 86.4772 154.212 86.6961 154.55 86.8284L154.632 86.8603L154.718 86.8466C155.266 86.7691 155.668 86.4361 155.882 85.8843C156.078 85.378 156.128 84.8809 156.028 84.4203C155.987 84.1922 155.814 84.0372 155.558 83.987C155.654 83.198 155.763 82.4637 155.887 81.7476C156.01 81.0133 156.156 80.2745 156.315 79.5539C156.571 79.5721 156.822 79.5858 157.064 79.5858C157.794 79.5949 158.492 79.5265 159.14 79.3851C160.071 79.1845 160.983 78.9017 161.85 78.5368C162.685 78.1902 163.515 77.7889 164.314 77.3556C165.062 76.9451 165.847 76.5666 166.645 76.2291L166.677 76.2154C167.467 75.7775 168.233 75.3488 168.972 74.9292C169.707 74.5096 170.464 74.0399 171.199 73.5428C171.742 73.2144 172.299 72.8541 172.86 72.4801C173.394 72.1243 173.932 71.7276 174.457 71.3125L174.493 71.2806C174.616 71.1483 174.767 71.0252 174.94 70.9112C175.242 70.7287 175.374 70.4049 175.296 70.0127Z" fill="white"/>
</svg>
