<svg xmlns="http://www.w3.org/2000/svg" id="Capa_2" data-name="Capa 2" viewBox="0 0 72.52 77.87"><defs><style>      .cls-1 {        fill: #fff;        stroke-width: 0px;      }    </style></defs><g id="Capa_1-2" data-name="Capa 1"><g><path class="cls-1" d="M50.2,34.9c1.91-2.75,3.03-6.09,3.03-9.69,0-9.38-7.6-16.98-16.98-16.98-9.38,0-16.98,7.6-16.98,16.98,0,3.6,1.12,6.94,3.03,9.69h-4.53s0,7.29,0,7.29h16.82s0-.08,0-.08v-7.21s0,0-.01,0c-4.64-.79-8.17-4.82-8.17-9.69,0-5.43,4.4-9.83,9.83-9.83,5.43,0,9.83,4.4,9.83,9.83,0,4.86-3.53,8.9-8.17,9.69,0,0,0,0-.01,0v7.21s0,.08,0,.08h16.82s0-7.29,0-7.29h-4.53Z"></path><path class="cls-1" d="M60.22,50.59H12.3c-.75,0-1.36-.61-1.36-1.36V1.36c0-.75.61-1.36,1.36-1.36h47.92c.75,0,1.36.61,1.36,1.36v47.87c0,.75-.61,1.36-1.36,1.36ZM12.3.8c-.31,0-.56.25-.56.56v47.87c0,.31.25.56.56.56h47.92c.31,0,.56-.25.56-.56V1.36c0-.31-.25-.56-.56-.56H12.3Z"></path><g><path class="cls-1" d="M.59,60.61c0-.35-.07-.56-.2-.63l-.11-.05c-.18-.11-.28-.24-.28-.37,0-.26.18-.39.55-.39h2.13c.15,0,.27.03.39.09.11.06.17.16.17.29s-.09.26-.27.37l-.13.05c-.13.09-.2.3-.2.63v5.35c0,.32.07.52.2.61l.13.07c.18.12.27.23.27.35,0,.26-.18.39-.55.39H.55c-.37,0-.55-.13-.55-.39,0-.09.02-.16.06-.2.04-.04.11-.09.22-.15l.11-.07c.13-.07.2-.27.2-.61v-5.35h0Z"></path><path class="cls-1" d="M10.27,60.59c0-.06-.02-.18-.05-.36-.07-.14-.21-.25-.44-.31-.18-.1-.28-.22-.28-.39,0-.23.26-.35.77-.35h.97c.5,0,.75.12.75.35,0,.16-.09.29-.27.39-.23.07-.37.17-.42.31-.03.06-.06.18-.08.36v6.07c0,.33-.04.55-.11.64-.08.1-.28.14-.6.14-.27,0-.46-.05-.56-.16-.1-.1-.38-.49-.83-1.18l-3.5-4.82v4.7c.02.17.05.3.07.37.03.07.06.12.11.15.04.04.09.07.15.09.06.02.11.04.17.07.2.07.3.2.3.37,0,.23-.26.35-.77.35h-.97c-.5,0-.75-.12-.75-.35,0-.18.09-.3.27-.37.14-.05.23-.1.29-.13s.1-.09.13-.18c.02-.07.05-.19.07-.37v-4.95c0-.12,0-.24,0-.36,0-.12-.02-.22-.04-.32s-.07-.17-.14-.24-.16-.12-.29-.16c-.15-.05-.26-.1-.32-.15s-.1-.13-.1-.26c0-.26.21-.39.64-.39h1.52c.22,0,.37.01.44.04s.18.11.33.26c.2.21.41.46.63.75s.43.57.62.84c.19.27.46.63.8,1.1l1.5,2.13v-3.7h0Z"></path><path class="cls-1" d="M20.18,61.28c-.07.25-.21.37-.43.37-.18,0-.33-.12-.44-.37-.22-.47-.45-.78-.68-.95-.36-.3-.8-.46-1.34-.46-.59,0-1.09.17-1.5.52-.41.34-.71.78-.91,1.31-.2.53-.3,1.09-.3,1.67,0,.81.21,1.56.64,2.23.43.68,1.03,1.01,1.79,1.01.51,0,.91-.14,1.19-.42.22-.23.33-.68.33-1.34,0-.27-.02-.46-.05-.58-.03-.12-.11-.21-.22-.26-.11-.05-.3-.08-.55-.08-.32,0-.55-.03-.68-.08-.13-.05-.2-.17-.2-.34,0-.31.27-.46.82-.46h1.8c.41,0,.7.03.9.08.12.04.18.15.18.31,0,.05-.02.22-.05.52l-.07.79c0,.38.04.74.12,1.08.03.07.04.15.04.24,0,.34-.45.68-1.36,1.03-.83.29-1.6.44-2.29.44-.84,0-1.61-.16-2.3-.49s-1.23-.81-1.62-1.44-.59-1.37-.59-2.23.21-1.63.62-2.29c.41-.66.98-1.17,1.69-1.53.72-.36,1.5-.54,2.36-.54.43,0,.87.05,1.33.16.46.1.85.25,1.18.45.23.12.39.26.47.41.06.13.09.46.09.99v.27h0Z"></path><path class="cls-1" d="M23.66,65.32c0,.41.03.7.1.86s.21.26.42.31c.21.05.59.08,1.13.08.39,0,.69-.03.92-.1s.45-.22.68-.45c.15-.18.27-.31.37-.41.1-.09.21-.14.34-.14.1,0,.2.04.28.11.08.07.12.16.12.26,0,.2-.08.54-.24,1.03-.07.23-.15.37-.23.43-.08.06-.25.08-.51.08h-5.48c-.37,0-.55-.13-.55-.39,0-.09.02-.16.06-.2.04-.04.11-.09.22-.15l.12-.07c.13-.09.2-.29.2-.61v-5.35c0-.33-.07-.54-.2-.63l-.12-.05c-.18-.11-.28-.24-.28-.37s.06-.23.17-.29c.11-.06.24-.09.38-.09h5.22c.32,0,.53.05.63.15.12.15.18.51.18,1.06,0,.32-.13.48-.4.48-.15,0-.32-.11-.52-.33-.21-.25-.44-.4-.7-.46-.24-.06-.61-.09-1.12-.09s-.8.03-.93.09c-.18.06-.28.17-.28.33v2.07h1.69c.22,0,.38-.02.47-.07.09-.05.18-.11.28-.2.1-.09.2-.13.29-.13.27,0,.4.26.4.77,0,.31-.03.54-.08.7-.05.16-.16.24-.33.24-.1,0-.21-.04-.31-.13s-.2-.15-.28-.19-.23-.06-.45-.06h-1.69v1.92h0Z"></path><path class="cls-1" d="M29.78,66.33c-.83-.8-1.24-1.82-1.24-3.07,0-.61.11-1.17.34-1.69s.54-.98.95-1.37c.41-.39.87-.68,1.41-.89.53-.2,1.1-.31,1.71-.31s1.19.1,1.73.31c.55.2,1.03.5,1.44.87.41.38.73.83.96,1.35.23.52.34,1.1.34,1.72,0,.81-.2,1.54-.61,2.2-.41.66-.96,1.17-1.65,1.53s-1.44.55-2.25.55c-.56,0-1.12-.11-1.67-.32s-1.04-.51-1.45-.89h0ZM35.23,63.3c0-.54-.07-1.07-.21-1.59-.14-.52-.38-.95-.72-1.31-.34-.35-.79-.53-1.34-.53-.79,0-1.4.41-1.81,1.23-.3.59-.44,1.3-.44,2.13,0,.53.07,1.06.21,1.59.14.53.38.97.71,1.33.33.36.77.54,1.31.54s1-.17,1.35-.52c.34-.34.59-.77.73-1.28.14-.51.21-1.04.21-1.59h0Z"></path><path class="cls-1" d="M44.7,59.76c.11-.25.2-.41.27-.48.08-.07.23-.1.46-.1h2.09c.1,0,.19.04.26.11.07.07.11.17.11.3s-.03.22-.1.27c-.07.05-.17.1-.32.15-.14.04-.23.1-.27.18-.04.08-.06.2-.06.37v5.41c0,.32.07.52.2.61l.13.07c.17.11.26.23.26.35,0,.26-.18.39-.55.39h-2.13c-.36,0-.53-.13-.53-.39,0-.09.02-.16.06-.2.04-.04.11-.09.2-.15l.12-.07c.13-.09.2-.29.2-.61v-4.86l-1.81,4.49c-.1.24-.17.39-.21.45s-.1.12-.19.17-.23.07-.41.07c-.27,0-.45-.02-.55-.07s-.2-.18-.3-.38l-1.98-4.6v4.75c.02.17.05.3.07.37.03.07.06.12.11.15s.09.07.15.09c.06.02.11.04.17.07.2.07.3.2.3.37,0,.23-.26.35-.77.35h-.97c-.5,0-.75-.12-.75-.35,0-.18.09-.3.27-.37.14-.05.23-.1.29-.13.06-.03.1-.09.13-.18.02-.07.05-.19.07-.37v-5.37c0-.1-.01-.18-.04-.24-.07-.21-.21-.34-.44-.4-.15-.05-.26-.1-.32-.15-.07-.05-.1-.13-.1-.26,0-.26.21-.39.64-.39h2.18c.24,0,.39.06.47.17.08.11.17.33.28.64l1.56,4.01,1.74-4.23h0Z"></path><path class="cls-1" d="M50.96,65.32c0,.41.03.7.1.86s.21.26.42.31c.21.05.59.08,1.13.08.39,0,.69-.03.92-.1s.45-.22.68-.45c.15-.18.27-.31.37-.41.1-.09.21-.14.34-.14.1,0,.2.04.28.11.08.07.12.16.12.26,0,.2-.08.54-.24,1.03-.07.23-.15.37-.23.43s-.25.08-.51.08h-5.48c-.37,0-.55-.13-.55-.39,0-.09.02-.16.06-.2s.11-.09.22-.15l.12-.07c.13-.09.2-.29.2-.61v-5.35c0-.33-.07-.54-.2-.63l-.12-.05c-.18-.11-.28-.24-.28-.37s.06-.23.17-.29c.11-.06.24-.09.38-.09h5.22c.32,0,.53.05.63.15.12.15.18.51.18,1.06,0,.32-.13.48-.4.48-.15,0-.32-.11-.52-.33-.21-.25-.44-.4-.7-.46-.24-.06-.61-.09-1.12-.09s-.8.03-.93.09c-.18.06-.28.17-.28.33v2.07h1.69c.22,0,.38-.02.47-.07.09-.05.18-.11.28-.2.1-.09.2-.13.29-.13.27,0,.4.26.4.77,0,.31-.03.54-.08.7-.05.16-.16.24-.33.24-.1,0-.21-.04-.31-.13s-.2-.15-.28-.19c-.08-.04-.23-.06-.45-.06h-1.69v1.92h0Z"></path><path class="cls-1" d="M63.59,61.28c-.07.25-.21.37-.43.37-.18,0-.33-.12-.44-.37-.22-.47-.45-.78-.68-.95-.36-.3-.8-.46-1.34-.46-.59,0-1.1.17-1.5.52-.41.34-.71.78-.91,1.31-.2.53-.3,1.09-.3,1.67,0,.81.21,1.56.64,2.23.43.68,1.03,1.01,1.79,1.01.51,0,.91-.14,1.19-.42.22-.23.33-.68.33-1.34,0-.27-.02-.46-.05-.58-.03-.12-.11-.21-.22-.26s-.3-.08-.55-.08c-.32,0-.55-.03-.68-.08-.13-.05-.2-.17-.2-.34,0-.31.27-.46.82-.46h1.8c.41,0,.7.03.9.08.12.04.18.15.18.31,0,.05-.02.22-.05.52l-.07.79c0,.38.04.74.12,1.08.03.07.04.15.04.24,0,.34-.45.68-1.36,1.03-.83.29-1.6.44-2.29.44-.84,0-1.61-.16-2.3-.49-.69-.33-1.23-.81-1.62-1.44-.4-.63-.59-1.37-.59-2.23s.21-1.63.62-2.29c.41-.66.98-1.17,1.69-1.53.72-.36,1.5-.54,2.36-.54.43,0,.87.05,1.33.16.46.1.85.25,1.18.45.23.12.39.26.47.41.06.13.09.46.09.99v.27h0Z"></path><path class="cls-1" d="M64.9,67.37c-.27,0-.47-.02-.6-.07-.12-.05-.19-.15-.19-.31,0-.1.07-.21.22-.33.16-.1.28-.22.34-.37l.41-1.24c.27-.86.8-2.15,1.57-3.87.24-.55.51-1.12.82-1.69.1-.17.2-.28.31-.32s.27-.06.5-.06c.31,0,.52.04.64.13.12.08.25.27.37.55l2.29,5.37.39,1.15c.04.1.07.16.11.2s.11.09.22.17c.15.08.22.18.22.31,0,.26-.19.39-.57.39h-1.89c-.47,0-.7-.12-.7-.37,0-.12.08-.23.25-.32s.25-.17.25-.25c0-.19-.15-.7-.46-1.54l-.05-.18h-3.13s-.06.2-.15.45-.15.47-.2.64c-.05.17-.07.31-.07.41,0,.11.02.2.07.25.05.06.12.12.22.17.1.06.17.11.22.15s.08.12.08.21c0,.15-.07.25-.21.3s-.36.07-.65.07h-.62ZM69.04,63.79l-.05-.17-1.19-2.8-1.27,2.97h2.51Z"></path></g><g><path class="cls-1" d="M16.94,75.98v-6.42h.85v6.42h-.85Z"></path><path class="cls-1" d="M19.18,75.98v-4.65h.71v.66c.34-.51.84-.77,1.48-.77.28,0,.54.05.77.15.24.1.41.23.53.4.12.16.2.36.25.58.03.15.04.4.04.77v2.86h-.79v-2.83c0-.32-.03-.56-.09-.72-.06-.16-.17-.29-.33-.38-.16-.1-.34-.14-.55-.14-.34,0-.63.11-.87.32-.24.21-.36.62-.36,1.21v2.54h-.79,0Z"></path><path class="cls-1" d="M24.02,76.37l.77.11c.03.24.12.41.27.52.2.15.46.22.8.22.36,0,.65-.07.85-.22.2-.15.33-.35.4-.61.04-.16.06-.5.06-1.01-.34.41-.77.61-1.29.61-.64,0-1.13-.23-1.48-.69-.35-.46-.53-1.01-.53-1.66,0-.44.08-.85.24-1.23s.39-.66.7-.87c.3-.2.66-.31,1.07-.31.55,0,1,.22,1.36.67v-.56h.73v4.02c0,.72-.07,1.24-.22,1.54s-.38.54-.7.72-.71.26-1.18.26c-.55,0-1-.12-1.34-.37s-.51-.63-.49-1.13h0ZM24.67,73.57c0,.61.12,1.05.36,1.33.24.28.55.42.91.42s.67-.14.91-.42.37-.72.37-1.31-.13-1-.38-1.29c-.25-.29-.56-.43-.91-.43s-.65.14-.89.43c-.25.29-.37.71-.37,1.27h0Z"></path><path class="cls-1" d="M32.33,74.48l.81.1c-.13.48-.37.85-.71,1.11-.35.26-.79.39-1.33.39-.68,0-1.22-.21-1.62-.63s-.6-1.01-.6-1.76.2-1.39.6-1.82.92-.65,1.57-.65,1.13.21,1.52.63.59,1.02.59,1.79c0,.05,0,.12,0,.21h-3.47c.03.51.17.9.43,1.17.26.27.58.41.97.41.29,0,.54-.08.74-.23s.37-.39.49-.73h0ZM29.75,73.21h2.59c-.03-.39-.13-.68-.3-.88-.25-.3-.58-.45-.98-.45-.36,0-.67.12-.91.36s-.38.57-.41.97h0Z"></path><path class="cls-1" d="M34.14,75.98v-4.65h.71v.66c.34-.51.84-.77,1.48-.77.28,0,.54.05.77.15s.41.23.53.4c.12.16.2.36.25.58.03.15.04.4.04.77v2.86h-.79v-2.83c0-.32-.03-.56-.09-.72s-.17-.29-.33-.38c-.16-.1-.34-.14-.55-.14-.34,0-.63.11-.87.32-.24.21-.36.62-.36,1.21v2.54h-.79,0Z"></path><path class="cls-1" d="M39.13,70.47v-.91h.79v.91h-.79ZM39.13,75.98v-4.65h.79v4.65h-.79Z"></path><path class="cls-1" d="M44.29,74.48l.81.1c-.13.48-.37.85-.71,1.11-.35.26-.79.39-1.33.39-.68,0-1.22-.21-1.62-.63s-.6-1.01-.6-1.76.2-1.39.6-1.82.92-.65,1.57-.65,1.13.21,1.52.63c.39.42.59,1.02.59,1.79,0,.05,0,.12,0,.21h-3.47c.03.51.17.9.43,1.17.26.27.58.41.97.41.29,0,.54-.08.74-.23s.37-.39.49-.73h0ZM41.71,73.21h2.59c-.03-.39-.13-.68-.3-.88-.25-.3-.58-.45-.98-.45-.36,0-.67.12-.91.36s-.38.57-.41.97h0Z"></path><path class="cls-1" d="M46.09,75.98v-4.65h.71v.71c.18-.33.35-.55.5-.65.15-.11.32-.16.5-.16.27,0,.54.08.81.25l-.27.73c-.19-.11-.39-.17-.58-.17-.17,0-.33.05-.46.16-.14.1-.24.25-.29.43-.09.28-.13.59-.13.92v2.43h-.79,0Z"></path><path class="cls-1" d="M49.32,70.76l.58-1.23h1.03l-.96,1.23h-.65ZM49.36,75.98v-4.65h.79v4.65h-.79Z"></path><path class="cls-1" d="M54.61,75.41c-.29.25-.57.42-.84.53-.27.1-.56.15-.87.15-.51,0-.9-.12-1.18-.37s-.41-.57-.41-.96c0-.23.05-.44.16-.62.1-.19.24-.34.41-.45s.36-.2.57-.26c.15-.04.39-.08.7-.12.64-.08,1.1-.17,1.41-.27,0-.11,0-.18,0-.21,0-.32-.07-.55-.22-.68-.2-.18-.5-.27-.9-.27-.37,0-.64.07-.82.2s-.31.36-.39.69l-.77-.11c.07-.33.18-.6.35-.8.16-.2.39-.36.7-.47.3-.11.66-.16,1.05-.16s.72.05.97.14.43.21.55.35.2.32.25.54c.03.13.04.38.04.73v1.05c0,.73.02,1.2.05,1.39s.1.38.2.56h-.82c-.08-.16-.13-.35-.16-.57h0ZM54.54,73.65c-.29.12-.72.22-1.29.3-.32.05-.55.1-.69.16-.13.06-.24.14-.31.26-.07.11-.11.24-.11.37,0,.21.08.39.24.53s.39.21.7.21.57-.07.81-.2c.24-.13.41-.31.52-.54.08-.18.13-.44.13-.79v-.29h0Z"></path></g></g></g></svg>