<?xml version="1.0" encoding="UTF-8"?>
<svg id="Capa_1" data-name="Capa 1" xmlns="http://www.w3.org/2000/svg" viewBox="0 0 1979.33 405.93">
  <defs>
    <style>
      .cls-1 {
        fill: #fff;
      }
    </style>
  </defs>
  <g>
    <g>
      <path class="cls-1" d="M645.92,242.64l28.91-26.58c15.62,18.94,35.88,28.57,54.16,28.57,23.59,0,38.54-13.29,38.54-30.9,0-20.27-19.27-27.58-37.88-32.89-41.87-11.96-75.42-26.58-75.42-68.45,0-39.54,33.56-67.78,77.75-67.78,27.58,0,52.83,9.97,71.77,32.89l-29.57,27.25c-13.62-16.61-27.91-23.59-43.19-23.59-21.93,0-36.22,13.29-36.22,29.57,0,18.94,17.61,25.25,35.22,30.57,41.87,11.3,77.75,24.25,77.75,70.44,0,39.54-30.9,69.11-81.4,69.11-30.24,0-60.47-10.96-80.41-38.21Z"/>
      <path class="cls-1" d="M819.78,189.9c0-51.53,30.09-90.26,77.81-90.26,24.21,0,42.53,10.03,54.98,31.81l2.42-.35c-.69-9.68-.69-17.64-.69-27.66h38.73s0,172.56,0,172.56h-38.73c0-10.37,0-17.64.69-28.01l-2.42-.35c-12.79,22.13-32.85,32.51-56.71,32.51-46.68,0-76.08-39.77-76.08-90.26ZM954.99,189.56c0-32.16-19.02-54.98-48.76-54.98-29.39,0-47.38,24.21-47.38,55.33,0,31.47,17.98,54.98,47.38,54.98,30.09,0,48.76-22.82,48.76-55.33Z"/>
      <path class="cls-1" d="M1011.28,103.45h38.73c0,10.03,0,17.29-.69,26.97l2.42.35c11.41-20.75,30.43-31.47,53.26-31.47,40.81,0,60.52,28.01,60.52,68.47v108.24s-39.42,0-39.42,0v-98.21c0-26.28-11.76-42.88-36.66-42.88-25.24,0-38.73,19.37-38.73,43.92v97.17s-39.42,0-39.42,0V103.45Z"/>
      <path class="cls-1" d="M1178.99,189.56c0-51.53,29.74-90.6,77.81-90.6,23.51,0,42.88,10.03,54.98,31.81l2.42-.69c-1.38-14.18-1.38-23.86-1.38-39.08V25.3s39.42,0,39.42,0v250.71s-38.73,0-38.73,0c0-10.03,0-17.98.69-27.66l-2.42-.35c-12.45,21.44-32.16,31.81-56.71,31.81-46.34,0-76.08-39.77-76.08-90.26ZM1314.2,189.56c0-32.51-19.02-54.98-48.76-54.98-29.39.35-47.38,23.86-47.38,55.33,0,31.12,17.98,54.98,47.38,54.98,30.09,0,48.76-23.17,48.76-55.33Z"/>
      <path class="cls-1" d="M1366.68,57.81c0-14.18,10.37-23.86,24.9-23.86,14.52,0,24.9,9.68,24.9,23.86,0,13.83-10.37,23.51-24.9,23.51-14.52,0-24.9-9.68-24.9-23.51ZM1371.86,103.45h39.42s0,172.56,0,172.56h-39.42s0-172.56,0-172.56Z"/>
      <path class="cls-1" d="M1429.27,189.9c0-53.25,34.58-91.98,85.76-91.98,51.53,0,81.26,34.58,81.26,88.18,0,5.19-.35,9.68-.69,14.87h-127.95c3.8,26.28,21.79,45.65,48.07,45.65,20.06,0,35.27-10.37,43.92-29.05l33.2,15.91c-15.22,31.47-42.88,47.72-77.81,47.72-51.18,0-85.76-38.39-85.76-91.29ZM1558.6,170.88c-4.15-23.51-18.67-38.73-43.57-38.73-23.86,0-40.11,15.91-45.99,38.73h89.56Z"/>
      <path class="cls-1" d="M1609.88,308.17l34.24-16.6c8.99,17.64,24.55,27.66,46.34,27.66,30.09,0,50.14-19.37,50.14-48.76,0-10.72,0-16.25.35-26.63l-2.42-.35c-12.1,22.13-32.51,33.89-58.1,33.89-46.34,0-74.7-39.08-74.7-89.22,0-50.14,29.39-88.87,77.81-88.87,24.21,0,42.53,10.03,54.98,32.16l2.77-.69c-.69-9.34-1.04-17.29-1.04-27.32h39.08s0,163.91,0,163.91c0,54.64-36.31,86.11-88.87,86.11-39.42,0-66.05-16.6-80.57-45.3ZM1740.94,188.52c0-31.47-18.67-53.95-48.76-53.95-29.39.69-47.38,23.52-47.38,54.29,0,30.43,18.33,52.91,47.38,52.91,30.09,0,48.76-21.44,48.76-53.26Z"/>
      <path class="cls-1" d="M1788.92,189.56c0-52.91,35.62-91.64,88.18-91.64,52.22,0,87.84,38.39,87.84,91.29,0,52.91-35.62,91.99-87.84,91.99-52.56,0-88.18-38.73-88.18-91.64ZM1925.87,189.21c0-31.47-18.67-56.37-48.76-56.37-30.43,0-49.11,24.9-49.11,56.71,0,31.47,18.67,56.71,49.11,56.71,30.09,0,48.76-25.24,48.76-57.06Z"/>
    </g>
    <path class="cls-1" d="M1979.33,80.96c0,12.53-10.11,22.64-22.51,22.64s-22.64-10.18-22.64-22.64,10.11-22.7,22.9-22.7,22.25,10.31,22.25,22.7ZM1938.81,80.96c0,10.05,8.09,18.33,17.94,18.33s17.94-8.22,17.94-18.33-8.02-18.4-17.68-18.4c-10.18,0-18.2,8.09-18.2,18.4ZM1957.86,68.17c2.74,0,4.37.33,5.87,1.17,2.15,1.24,3.33,3.33,3.33,5.87,0,2.81-1.44,4.83-4.18,6.07,2.87,1.24,3.65,2.87,3.78,8.16.13,1.89.33,3.13.65,3.85h-5.68c-.26-.59-.46-1.37-.59-3.2-.26-3.78-.46-4.89-1.24-5.74-.72-.78-2.15-1.3-3.78-1.3h-2.87v10.24h-5.94v-25.12h10.63ZM1953.17,79.59h3.39c3.2,0,4.63-1.24,4.63-3.91s-1.3-3.85-4.31-3.85h-3.72v7.76Z"/>
    <path class="cls-1" d="M415.72.21v-.21H106.8C47.82,0,0,47.82,0,106.8v1.63c0,59.88,48.54,108.43,108.43,108.43H0v108.43h173.52c59.88,0,108.43-48.55,108.43-108.43v108.43h125.51c89.83,0,162.65-72.82,162.65-162.65S501.71,4.51,415.72.21ZM353.68,108.91c-39.61,0-71.73,32.11-71.73,71.73v.97c0-40.41-32.76-73.18-73.18-73.18h1.63c39.51,0,71.55-32.03,71.55-71.55v-.18c0,39.61,32.11,71.73,71.73,71.73v.48Z"/>
  </g>
  <g>
    <path class="cls-1" d="M679.72,365.7c-1.29-5.49-5.49-8.66-11.58-8.66-9.43,0-14.84,6.95-14.84,18.95s5.4,19.04,14.49,19.04c6.6,0,10.55-3.26,12.09-10.12h13.64c-1.54,12.95-11.24,21.01-25.39,21.01-16.9,0-27.7-11.66-27.7-29.93s10.64-29.85,27.62-29.85c13.81,0,23.24,7.38,24.79,19.56h-13.12Z"/>
    <path class="cls-1" d="M739.41,358.41h-29.76v11.15h25.99v10.12h-25.99v13.98h30.28v10.98h-43.14v-57.21h42.63v10.98Z"/>
    <path class="cls-1" d="M777.82,404.64l-16.21-29.25-5.92-11.15c.17,3,.17,5.15.17,6.86.09,3.09.09,6.43.09,10.04v23.5h-11.75v-57.21h13.38l15.78,28.48c2.23,4.29,3.69,7.29,5.83,11.58-.17-2.32-.17-3.86-.17-5.57l-.09-4.29v-30.19h11.75v57.21h-12.87Z"/>
    <path class="cls-1" d="M822.67,404.64h-12.87v-46.23h-17.33v-10.98h47.52v10.98h-17.33v46.23Z"/>
    <path class="cls-1" d="M854.4,404.64h-12.61v-57.21h24.96c7.38,0,11.49.94,14.92,3.43,3.52,2.57,5.49,6.86,5.49,12.01,0,6.95-3.09,11.41-9.52,13.81,5.66,1.8,7.63,4.8,8.06,12.35l.43,8.15c.26,3.77.69,5.06,2.32,7.46h-12.61c-1.54-1.2-1.97-2.06-2.14-4.97l-.52-7.81c-.51-7.03-3.6-10.12-10.21-10.12h-8.58v22.9ZM867,371.62c4.72,0,7.29-2.4,7.29-6.6s-2.57-6.6-7.29-6.6h-12.61v13.21h12.61Z"/>
    <path class="cls-1" d="M946.93,376.51c0,17.41-11.58,29.42-28.3,29.42s-28.39-12.01-28.39-29.93c0-9.35,3.17-17.41,8.83-22.56,5.23-4.8,11.92-7.29,19.47-7.29,17.24,0,28.39,11.92,28.39,30.36ZM903.71,376c0,11.92,5.58,19.04,14.92,19.04s14.84-7.12,14.84-18.78-5.49-19.21-14.92-19.21-14.84,7.12-14.84,18.95Z"/>
    <path class="cls-1" d="M1009.1,365.7c-1.29-5.49-5.49-8.66-11.58-8.66-9.43,0-14.84,6.95-14.84,18.95s5.4,19.04,14.49,19.04c6.6,0,10.55-3.26,12.09-10.12h13.64c-1.54,12.95-11.24,21.01-25.39,21.01-16.9,0-27.7-11.66-27.7-29.93s10.64-29.85,27.62-29.85c13.81,0,23.24,7.38,24.79,19.56h-13.12Z"/>
    <path class="cls-1" d="M1080.54,376.51c0,17.41-11.58,29.42-28.3,29.42s-28.39-12.01-28.39-29.93c0-9.35,3.17-17.41,8.83-22.56,5.23-4.8,11.92-7.29,19.47-7.29,17.24,0,28.39,11.92,28.39,30.36ZM1037.31,376c0,11.92,5.58,19.04,14.92,19.04s14.84-7.12,14.84-18.78-5.49-19.21-14.92-19.21-14.84,7.12-14.84,18.95Z"/>
    <path class="cls-1" d="M1107.11,404.64l-7.89-30.45c-.6-2.57-1.11-4.37-1.46-5.57-.43-1.8-.51-2.14-1.03-3.77.17,2.06.17,3.52.17,4.46l.09,5.49v29.85h-11.75v-57.21h18.1l7.29,29.93c1.11,4.46,2.06,9.18,2.74,12.95.26-1.11.34-1.72.34-1.8l.94-3.69c.17-1.03.51-2.32.86-3.86.43-1.8.86-3.6.86-3.77l7.46-29.76h17.93v57.21h-11.75v-29.85l.09-5.49c0-1.11,0-2.4.17-4.46-.94,3.43-1.54,5.75-1.8,6.52-.51,1.54-.77,2.66-.86,2.74l-7.8,30.53h-12.69Z"/>
    <path class="cls-1" d="M1191.42,358.41h-29.76v11.15h25.99v10.12h-25.99v13.98h30.28v10.98h-43.14v-57.21h42.63v10.98Z"/>
    <path class="cls-1" d="M1208.82,404.64h-12.61v-57.21h24.96c7.38,0,11.49.94,14.92,3.43,3.52,2.57,5.49,6.86,5.49,12.01,0,6.95-3.09,11.41-9.52,13.81,5.66,1.8,7.63,4.8,8.06,12.35l.43,8.15c.26,3.77.69,5.06,2.32,7.46h-12.61c-1.54-1.2-1.97-2.06-2.14-4.97l-.52-7.81c-.51-7.03-3.6-10.12-10.21-10.12h-8.58v22.9ZM1221.43,371.62c4.72,0,7.29-2.4,7.29-6.6s-2.57-6.6-7.29-6.6h-12.61v13.21h12.61Z"/>
    <path class="cls-1" d="M1283.94,365.7c-1.29-5.49-5.49-8.66-11.58-8.66-9.43,0-14.84,6.95-14.84,18.95s5.4,19.04,14.49,19.04c6.6,0,10.55-3.26,12.09-10.12h13.64c-1.54,12.95-11.24,21.01-25.39,21.01-16.9,0-27.7-11.66-27.7-29.93s10.64-29.85,27.62-29.85c13.81,0,23.24,7.38,24.79,19.56h-13.12Z"/>
    <path class="cls-1" d="M1313.87,404.64h-12.87v-57.21h12.87v57.21Z"/>
    <path class="cls-1" d="M1332.9,393.15l-3.6,11.49h-13.98l19.98-57.21h16.04l18.18,57.21h-14.58l-3.09-11.49h-18.95ZM1343.02,360.22l-6.95,22.39h12.95l-6-22.39Z"/>
    <path class="cls-1" d="M1383.33,393.66h27.96v10.98h-40.83v-57.21h12.87v46.23Z"/>
  </g>
</svg>